<svg width="178" height="93" viewBox="0 0 178 93" fill="none" xmlns="http://www.w3.org/2000/svg">
<path d="M176.9 88.68C176.9 88.68 176.9 88.75 176.9 88.78C176.55 88.74 176.19 88.7 175.83 88.67C175.42 88.5 175.01 88.51 174.61 88.67H174.51C167.58 87.64 160.23 82.42 159.07 75.17C159.22 74.85 159.22 74.53 159.07 74.21C159.09 73.59 159.2 72.99 159.41 72.41C159.73 71.53 160.06 70.66 160.39 69.79C160.43 69.52 160.46 69.24 160.5 68.97C160.53 68.92 160.56 68.88 160.6 68.83H160.63C160.63 68.83 160.63 68.76 160.63 68.71C160.66 68.51 160.68 68.31 160.71 68.12C160.72 68.08 160.74 68.04 160.75 68C160.92 67.72 160.91 67.44 160.75 67.16H160.71C160.68 66.97 160.66 66.77 160.63 66.56C160.55 66.32 160.47 66.08 160.39 65.84C160.39 65.8 160.39 65.76 160.39 65.72C160.26 65.44 160.13 65.17 160 64.89C159.88 64.73 159.76 64.57 159.63 64.41L158.56 63.47C158.15 63.23 157.74 63.02 157.24 63.11C156.95 63.1 156.66 63.01 156.4 63.23C156.32 63.17 156.22 63.12 156.17 63.04C156.1 62.95 156.07 62.83 156.03 62.73C156.12 62.44 155.91 62.25 155.81 62.02L155.34 61.75C155.34 61.75 155.34 61.69 155.33 61.66H154.5C153.83 61.77 153.66 62.22 153.56 62.84C153.56 62.88 153.56 62.93 153.56 62.97H153.53C153.53 62.97 153.46 63.05 153.43 63.1C153.37 63.4 153.32 63.71 153.26 64.01C153.24 64.14 153.22 64.27 153.2 64.4C153.12 64.64 153.04 64.88 152.96 65.12C152.9 65.39 152.83 65.66 152.78 65.94C152.75 66.06 152.74 66.19 152.72 66.32C152.72 66.36 152.72 66.4 152.72 66.45H152.7C152.7 66.45 152.64 66.53 152.61 66.58C152.59 66.62 152.59 66.66 152.61 66.69C152.61 66.73 152.61 66.77 152.61 66.81C152.57 66.93 152.53 67.05 152.49 67.17C152.32 67.61 152.15 68.04 151.98 68.48C151.79 68.84 151.6 69.21 151.4 69.57L151.29 69.92L151.05 70.52C150.97 70.72 150.89 70.92 150.81 71.12L150.57 71.72C150.4 72.2 150.23 72.67 150.06 73.15C149.99 73.31 149.92 73.47 149.85 73.63C149.57 74.51 149.29 75.39 149.01 76.26C148.89 76.66 148.77 77.06 148.65 77.46C148.74 77.46 148.81 77.47 148.85 77.5C148.8 77.47 148.73 77.45 148.65 77.46C148.36 78.38 148.07 79.31 147.8 80.24C147.7 80.58 147.65 80.94 147.58 81.29C147.49 81.58 147.4 81.86 147.32 82.15C147.2 82.58 147.1 83.02 146.98 83.45C146.68 83.95 146.82 84.39 147.19 84.78C147.27 84.85 147.36 84.92 147.44 84.99C148.97 85.49 149.37 84.15 149.84 82.98C150.46 81.43 151.05 79.86 151.65 78.3L152.13 76.86C152.17 76.78 152.21 76.7 152.25 76.62C152.55 75.7 152.84 74.78 153.14 73.85C153.17 73.74 153.18 73.62 153.21 73.51C153.25 73.43 153.28 73.35 153.32 73.27C153.36 73.19 153.39 73.11 153.43 73.03C153.45 72.99 153.45 72.95 153.43 72.92C153.45 72.89 153.46 72.85 153.46 72.81C153.49 72.81 153.52 72.79 153.55 72.79C153.55 72.75 153.55 72.71 153.55 72.67H153.57C153.57 72.67 153.62 72.66 153.61 72.65C153.61 72.62 153.59 72.59 153.58 72.56C153.62 72.4 153.66 72.24 153.7 72.08C154.02 71.03 154.67 66.89 155.94 66.57C155.98 66.54 156.02 66.5 156.07 66.47C156.03 66.5 155.99 66.54 155.94 66.57C155.99 66.57 156.04 66.57 156.09 66.57C156.17 66.73 156.25 66.89 156.34 67.05C156.63 67.81 156.93 68.57 157.22 69.33C157.26 69.43 157.26 69.55 157.28 69.67C157.28 69.76 157.28 69.85 157.28 69.94C157.23 70.05 157.18 70.17 157.13 70.28C156.77 71.18 156.41 72.08 156.05 72.99C155.89 73.39 155.77 73.8 155.85 74.24C155.84 74.28 155.82 74.32 155.81 74.36C155.65 74.64 155.65 74.93 155.81 75.21L155.85 75.19C155.85 75.47 155.85 75.75 155.85 76.03C156.01 76.55 156.16 77.06 156.32 77.58C156.4 77.82 156.49 78.06 156.57 78.31C156.65 78.43 156.72 78.54 156.8 78.66C156.96 78.98 157.13 79.3 157.29 79.63C157.33 79.67 157.36 79.7 157.4 79.74C157.47 79.9 157.54 80.07 157.61 80.23C157.74 80.42 157.87 80.62 158 80.81C158.12 80.97 158.24 81.13 158.36 81.29C158.4 81.33 158.44 81.37 158.48 81.41C158.68 81.69 158.88 81.97 159.08 82.25C159.2 82.41 159.32 82.57 159.44 82.73L160.16 83.57C160.56 83.97 160.95 84.36 161.35 84.76C161.47 84.88 161.59 85 161.71 85.12C162.85 86.13 164.06 87.04 165.29 87.93C165.71 88.23 166.17 88.48 166.62 88.75C166.7 88.79 166.78 88.83 166.86 88.87C166.94 88.91 167.02 88.95 167.1 88.99C168.42 89.79 169.86 90.31 171.32 90.74C172.16 90.99 173.05 91.07 173.92 91.22C174.37 91.22 174.81 91.22 175.26 91.22C176.13 91.24 176.43 91.03 177.17 90.64V88.72C177.09 88.72 177.01 88.72 176.93 88.72L176.9 88.68Z" fill="black"/>
<path d="M34.1699 40.79C34.8699 41.19 35.3299 41.16 35.9599 40.67C36.6699 38.64 37.1499 36.54 37.7099 34.46C38.2199 32.58 39.2399 30.42 39.3299 28.48C39.3699 28.4 39.4099 28.32 39.4499 28.24C39.4799 28.16 39.4999 28.08 39.5299 27.99H39.5699C39.6599 27.6 39.7499 27.2 39.8499 26.8C39.9499 26.4 40.0599 26 40.1699 25.6C40.2099 25.52 40.2499 25.44 40.2899 25.36C40.3999 24.94 40.4999 24.52 40.6099 24.1C40.8599 23.16 41.1099 22.23 41.3599 21.29C42.4199 17.46 43.4899 13.63 44.5599 9.80003C44.5999 9.64003 44.6399 9.48003 44.6799 9.32003C45.1299 7.14003 45.8699 4.99003 46.4799 2.86003C46.5199 2.70003 46.5599 2.54003 46.5999 2.38003C47.0699 0.850027 46.8199 -0.0499736 45.0699 2.64298e-05C45.0699 0.0300264 45.0699 0.0600264 45.0599 0.0900264C44.5699 0.170026 44.5399 0.610026 44.3699 0.940026C44.3699 1.02003 44.3699 1.10003 44.3699 1.18003C44.3299 1.34003 44.2899 1.50003 44.2499 1.66003L44.1299 2.02003C44.0499 2.26003 43.9699 2.50003 43.8899 2.74003C43.4799 4.23003 43.0799 5.72003 42.6699 7.20003C42.5099 7.79003 42.3399 8.37003 42.1699 8.96003C42.1399 9.00003 42.1099 9.04003 42.0799 9.08003C41.9599 9.55003 41.8399 10.03 41.7199 10.5C41.7199 10.55 41.7199 10.59 41.7199 10.64H41.6999C41.6999 10.64 41.6499 10.65 41.6599 10.66C41.6599 10.69 41.6799 10.72 41.6899 10.75C41.2099 12.47 40.7299 14.18 40.2499 15.9C40.2199 15.94 40.1899 15.98 40.1599 16.02C40.0699 16.42 39.9799 16.81 39.8899 17.21C39.8499 17.33 39.8099 17.45 39.7699 17.57C39.5799 18.3 39.3999 19.04 39.1899 19.77C38.9299 20.68 38.6499 21.58 38.3699 22.48L38.2099 23.19C38.1299 23.47 38.0499 23.75 37.9699 24.03C37.9299 24.19 37.8899 24.35 37.8499 24.51L37.6499 25.47C37.6099 25.63 37.5699 25.79 37.5299 25.95C37.4899 26.07 37.4499 26.19 37.4099 26.31C37.3599 26.47 37.2999 26.63 37.2499 26.79C37.2199 26.87 37.1999 26.95 37.1699 27.03L37.1299 27.15C36.9599 27.78 36.7999 28.41 36.6299 29.04C36.5999 29.17 36.5599 29.29 36.5299 29.42C36.4499 29.66 36.3699 29.9 36.2899 30.14C36.2099 30.42 36.1299 30.7 36.0499 30.98C36.0099 31.14 35.9699 31.3 35.9299 31.46L35.7299 32.42C35.6899 32.58 35.6499 32.74 35.6099 32.9C35.5199 33.18 35.4199 33.46 35.3299 33.74C35.2599 33.94 35.1899 34.14 35.1199 34.34C34.9799 34.89 34.8399 35.44 34.7099 35.99C34.6799 36.12 34.6399 36.25 34.6099 36.37C34.5299 36.61 34.4499 36.85 34.3699 37.09C34.2899 37.37 34.2099 37.65 34.1299 37.93C34.0899 38.09 34.0499 38.25 34.0099 38.41C33.8099 39.41 33.5199 39.94 34.1499 40.79H34.1699Z" fill="black"/>
<path d="M50.2299 77.29C50.2299 77.22 50.2299 77.15 50.2199 77.08C49.9699 76.88 49.8199 76.51 49.3999 76.58C49.3099 76.42 49.2199 76.42 49.1299 76.58C48.9399 76.62 48.7399 76.65 48.5499 76.69C48.3899 76.81 48.2299 76.93 48.0699 77.06C47.9099 77.18 47.7499 77.3 47.5899 77.42C44.6699 79.36 41.7299 81.25 38.7399 83.06C36.6699 84.32 34.5799 85.5 32.4399 86.63C30.5499 87.63 28.3399 89.35 26.1399 89.42C26.0999 89.41 26.0599 89.39 26.0199 89.38C25.7399 89.23 25.4599 89.23 25.1699 89.38V89.42C22.1399 89.19 20.8799 86.37 21.9299 83.95C22.8599 85.1 23.6599 86.15 25.2999 85.69C26.7899 85.27 27.5499 84.11 28.6399 83.17C28.7299 83.02 28.8199 82.86 28.9099 82.71C29.1099 82.35 29.3099 81.99 29.5099 81.63C29.7899 80.9 29.9599 80.13 30.0699 79.36C30.2899 79.09 30.2499 78.8 30.0999 78.51C30.0899 78.47 30.0699 78.43 30.0599 78.39C30.0299 78.19 30.0099 77.99 29.9799 77.79C29.9399 77.67 29.8999 77.55 29.8599 77.43C29.8399 77.4 29.8299 77.36 29.8399 77.32C28.2699 74.35 23.9899 76.84 22.3599 78.5C20.2099 80.69 19.1399 84 19.0399 87C19.0899 87.39 19.1399 87.79 19.1899 88.18C19.4699 88.82 19.7499 89.46 20.0299 90.09C20.5499 90.75 21.1199 91.35 21.9099 91.7C22.2399 91.84 22.5699 92.01 22.8999 92.16C22.8999 92.16 22.8999 92.23 22.8999 92.26H26.8499C26.8499 92.26 26.8499 92.19 26.8499 92.16V92.13C26.8499 92.13 26.9199 92.13 26.9499 92.13C26.9899 92.13 27.0299 92.13 27.0699 92.14C27.0699 92.11 27.0699 92.07 27.0799 92.04C27.2599 91.99 27.4299 91.94 27.6099 91.89C27.7499 91.85 27.8899 91.83 28.0299 91.8C28.1899 91.72 28.3499 91.64 28.5099 91.56C28.5499 91.56 28.5899 91.56 28.6299 91.56C28.7899 91.48 28.9499 91.4 29.1099 91.32C32.0999 89.8 35.0099 88.09 37.9699 86.5C38.0899 86.43 38.2099 86.36 38.3399 86.29C38.8399 85.97 39.3399 85.64 39.8499 85.33C41.2199 84.49 42.5999 83.66 43.9699 82.83C44.9699 82.17 45.9699 81.51 46.9599 80.85C47.5799 80.43 48.8799 79.87 49.2499 79.23C49.4099 79.11 49.5799 78.99 49.7399 78.86C49.9299 78.7 50.1199 78.53 50.3099 78.37C50.3099 78.33 50.3099 78.29 50.3099 78.25C50.2899 77.93 50.4599 77.58 50.2199 77.28L50.2299 77.29ZM23.6799 80.66C24.2599 79.73 24.9799 78.57 26.2199 78.62C27.5799 78.99 27.6399 79.78 26.8499 80.91C26.4299 81.51 25.2299 82.89 24.3999 82.65C24.3799 82.65 23.4599 81.61 23.4499 81.61C23.2999 81.12 23.3099 81.25 23.6699 80.67L23.6799 80.66Z" fill="black"/>
<path d="M15.9499 86.26C15.4699 86.54 14.9899 86.82 14.5099 87.1L14.4499 87.12L14.3899 87.1C14.3899 87.1 14.3899 87.03 14.3799 87C14.3499 87 14.3199 87 14.2899 87C13.8199 85.1 13.8799 82.98 13.7799 81.03C13.7499 80.83 13.7199 80.63 13.6899 80.43C13.6799 80.03 13.6599 79.63 13.6499 79.24C13.6499 79.16 13.6499 79.08 13.6499 79C13.6199 78.81 13.5599 78.63 13.5499 78.44C13.5299 77.87 13.5299 77.3 13.5299 76.73C13.5099 76.4 13.6699 76.06 13.4399 75.75C13.4699 75.46 13.4999 75.18 13.5199 74.89C13.5199 74.78 13.4799 74.68 13.4499 74.57C13.6099 74.05 13.6099 73.53 13.4499 73.01L13.4099 72.9C13.3899 72.74 13.3699 72.57 13.3699 72.41C13.3699 72.26 13.3999 72.1 13.4199 71.95C13.4199 71.13 13.4299 70.31 13.4299 69.49C13.4299 69.39 13.3599 69.28 13.3299 69.18C13.3199 68.94 13.3099 68.71 13.2999 68.47C13.3399 68.35 13.3799 68.23 13.4199 68.12C13.4199 68.04 13.4199 67.96 13.4199 67.88L13.5399 66.69L13.5799 66.57C13.5799 66.49 13.5799 66.41 13.5799 66.32C13.5799 66.03 13.5499 65.73 13.5599 65.44C13.5799 64.98 13.6199 64.52 13.6599 64.05C13.6699 64.01 13.6899 63.97 13.6999 63.93C13.9599 63.1 13.9599 61.4 13.6999 60.57C13.6899 60.53 13.6699 60.49 13.6599 60.45C13.7499 59.87 13.5699 59.33 13.4299 58.78C13.3099 58.65 13.1999 58.52 13.0799 58.4V58.44C12.7499 58.2 12.3799 58.32 12.0099 58.32C11.9399 58.32 11.8399 58.31 11.7899 58.35C11.5799 58.53 11.3799 58.72 11.1799 58.91C11.1299 59.11 11.0799 59.3 11.0299 59.5C11.0299 59.54 11.0299 59.58 11.0299 59.62C11.0299 59.86 11.0299 60.1 11.0299 60.34C11.0399 60.46 11.0599 60.58 11.0699 60.7C11.0599 60.78 11.0399 60.86 11.0299 60.95L10.9399 61.43C10.9699 61.55 10.9999 61.67 11.0299 61.79L10.9499 62.62C10.9499 63.1 10.9499 63.58 10.9499 64.05C10.9399 64.09 10.9199 64.13 10.9099 64.17C10.9199 64.25 10.9399 64.33 10.9499 64.41C10.9899 64.33 11.0199 64.25 11.0599 64.17C11.4499 64.19 11.6299 63.82 11.5999 63.44C11.6199 63.82 11.4499 64.19 11.0599 64.17C11.0199 64.25 10.9899 64.33 10.9499 64.41C10.9399 64.49 10.9199 64.57 10.9099 64.65C10.8799 64.8 10.8199 64.95 10.8099 65.1C10.8099 65.67 10.8099 66.25 10.8099 66.83C10.8399 67.06 10.8699 67.29 10.8999 67.53C10.8699 67.78 10.8399 68.02 10.8099 68.27V68.98C10.5999 69.23 10.6799 69.53 10.6999 69.82C10.0599 72.42 9.49993 74.97 8.59993 77.51C8.14993 78.77 7.09993 83.25 5.27993 83.12C2.78993 82.95 5.37993 78.91 6.00993 78.08C6.67993 77.21 7.89993 76.28 8.26993 75.23C8.65993 74.14 7.64993 73.29 6.59993 73.63C6.22993 73.78 6.10993 74.2 5.77993 74.37C5.49993 74.69 5.21993 75.01 4.92993 75.34C4.90993 75.65 4.64993 75.76 4.45993 75.93C4.29993 76.13 4.12993 76.33 3.96993 76.54C3.68993 77.08 3.32993 77.55 2.89993 77.97C2.77993 78.19 2.65993 78.41 2.52993 78.62C2.33993 78.93 2.13993 79.23 1.93993 79.53C1.56993 80.25 1.19993 80.96 0.829933 81.68C0.539933 82.42 0.169933 83.13 0.149933 83.95C0.149933 83.99 0.149933 84.03 0.149933 84.08L0.109933 84.43C-0.0500674 84.75 -0.0400674 85.07 0.109933 85.4C0.159933 85.71 0.199933 86.03 0.249933 86.34C1.13993 87.47 1.82993 88.1 3.41993 87.84C4.59993 87.64 5.59993 86.96 6.46993 86.17C8.67993 84.16 9.72993 81.35 10.9199 78.69C11.3299 79.3 11.1599 80.26 11.1899 80.97C11.2399 82.03 11.3099 83.08 11.4099 84.13C11.5899 85.99 11.8499 87.83 11.9899 89.69C12.2499 90.2 12.5799 90.64 13.1799 90.8C13.2999 90.8 13.4199 90.8 13.5399 90.8C14.3999 90.33 15.1099 89.67 15.9899 89.21C16.8199 88.77 17.7699 88.34 18.3299 87.54C18.3599 87.38 18.3999 87.23 18.4299 87.07C18.4299 86.95 18.4299 86.83 18.4299 86.71C17.7999 85.36 17.0199 85.41 15.9299 86.33L15.9499 86.26Z" fill="black"/>
<path d="M110.18 41.18C110.89 40.98 111.5 40.64 111.68 39.84L111.59 39.47C111.43 38.48 110.59 37.91 109.6 38.05C108.62 38.18 108.36 38.94 107.88 39.72C106.63 39.31 106.25 36.62 105.96 35.56C105.65 34.42 105.33 33.27 104.31 32.55C101.28 30.41 99.2799 33.99 98.2499 36.36C98.2199 36.36 98.1899 36.36 98.1599 36.37C98.1199 36.25 98.0399 36.13 98.0299 36C97.9699 35.45 97.9299 34.89 97.8899 34.34C97.8899 33.94 97.8899 33.54 97.8899 33.14C97.8199 31.95 99.2099 30.23 97.4499 29.79C95.9999 29.43 95.7799 30.97 95.3099 31.98C94.5999 33.53 93.6799 34.98 92.7099 36.38C91.5199 38.08 91.1899 37.97 89.3299 37.07C91.1199 35.5 92.3499 33.73 92.4099 31.35C92.6899 31.11 92.7099 30.93 92.4899 30.52C92.4599 30.52 92.4299 30.51 92.3899 30.5C92.3899 30.32 92.3899 30.15 92.3799 29.97C92.3299 29.52 92.2499 29.08 91.7799 28.85C91.3799 28.81 90.9799 28.76 90.5799 28.72C90.3499 28.7 90.1099 28.7 89.8699 28.7C89.5099 28.79 89.1499 28.89 88.7899 28.98C88.5499 29.06 88.3099 29.14 88.0699 29.22C87.3099 29.53 86.5999 29.91 86.0299 30.5C85.6699 30.86 85.3099 31.22 84.9399 31.59C84.8999 31.67 84.8699 31.74 84.8299 31.82C84.6699 32.01 84.4699 32.18 84.3599 32.39C84.1199 32.84 83.7199 33.21 83.6599 33.75C83.5799 33.95 83.4999 34.15 83.4199 34.35C83.3399 34.59 83.2599 34.83 83.1799 35.07C83.1799 35.23 83.1799 35.39 83.1799 35.55C82.9899 35.76 83.0299 36.02 83.0599 36.27C83.1399 36.24 83.2399 36.18 83.3199 36.1C83.2399 36.18 83.1499 36.24 83.0599 36.27C83.0599 36.43 83.0599 36.59 83.0499 36.75C82.6499 36.75 82.2399 36.75 81.8399 36.75C81.7599 36.79 81.6799 36.82 81.6099 36.86C81.2499 36.82 80.8899 36.78 80.5299 36.74C80.3699 36.66 80.2099 36.58 80.0499 36.5C78.7399 36.3 77.5499 34.83 76.9699 33.74C76.2399 32.38 76.3099 31.87 74.6599 31.83C73.7399 32.06 72.9499 32.49 72.3799 33.27C72.2599 33.39 72.1399 33.51 72.0199 33.63L70.4599 34.95C70.2599 35 70.0599 35.05 69.8699 35.1C69.2899 35.07 68.9999 34.64 68.6699 34.26C67.7999 33.03 67.1899 31.74 65.9199 30.91C65.7999 30.86 65.6799 30.8 65.5599 30.75C65.2499 30.75 64.9499 30.77 64.6399 30.77C64.4399 30.77 64.3099 30.83 64.2299 31.01C64.1499 31.09 64.0799 31.16 63.9999 31.24C63.8899 31.37 63.7699 31.49 63.6599 31.62C63.6599 31.66 63.6599 31.7 63.6599 31.74H63.6299C63.6299 31.74 63.5699 31.82 63.5399 31.86C63.4599 31.86 63.3799 31.85 63.2999 31.85C63.2999 31.93 63.2999 32.01 63.2999 32.09C63.3299 32.09 63.3699 32.09 63.3999 32.09C63.3999 32.09 63.3299 32.09 63.2999 32.09C63.2999 32.01 63.2999 31.93 63.2999 31.85C63.2999 31.81 63.2999 31.77 63.2999 31.73C63.2699 31.73 63.2299 31.73 63.1999 31.73C63.2399 31.24 63.2699 30.75 63.3099 30.26C63.3099 30.19 63.3699 30.13 63.3999 30.06C63.3999 30.02 63.3999 29.97 63.3999 29.93H63.4299C63.4299 29.86 63.4299 29.78 63.4299 29.69C63.4599 29.45 63.4799 29.21 63.5099 28.98C63.5099 28.9 63.5099 28.82 63.5099 28.74C63.5099 28.46 63.5099 28.18 63.5099 27.9C63.5299 27.6 63.5999 27.29 63.2899 27.08C63.2099 27.03 63.1299 26.97 63.0499 26.92C62.6499 26.79 62.2399 26.73 61.8499 26.96C61.1899 27.14 61.0999 27.69 61.0099 28.24C60.9599 28.52 60.9399 28.81 60.9099 29.09C60.8999 29.29 60.8799 29.49 60.8699 29.69C60.8799 29.77 60.8999 29.85 60.9099 29.93C60.6599 30.31 60.7999 30.72 60.7899 31.13L60.6299 31.37C60.6299 31.57 60.6299 31.77 60.6299 31.97C60.6299 32.05 60.6299 32.13 60.6299 32.21C60.4099 32.56 60.5599 32.93 60.5399 33.29C60.3899 33.64 60.3699 34 60.4199 34.37C60.3699 34.57 60.3099 34.76 60.2799 34.96C60.2399 35.24 60.2099 35.52 60.1799 35.8C60.1799 36.08 60.1799 36.36 60.1799 36.64C59.9399 36.98 60.0599 37.35 60.0599 37.72C60.0099 37.84 59.9499 37.96 59.8999 38.08C59.8999 38.28 59.8999 38.48 59.8999 38.68C59.8999 38.76 59.8999 38.84 59.8999 38.92C59.8599 39.28 59.8199 39.65 59.7799 40.01C59.6299 40.2 59.6299 40.4 59.7799 40.6C59.7899 40.64 59.8099 40.68 59.8199 40.73C59.8599 40.84 59.8899 40.96 59.9299 41.07C60.1799 41.24 60.3999 41.52 60.7599 41.42C60.8799 41.42 60.9999 41.42 61.1199 41.42C61.1599 41.42 61.1999 41.42 61.2399 41.42C62.6199 41.37 63.3799 37.48 63.7799 36.47C64.1399 35.57 65.5999 32.39 65.6899 35.09L65.8199 35.45C65.8199 35.53 65.8199 35.61 65.8199 35.69C65.6799 36.36 66.0599 36.85 66.3999 37.35C67.8099 38.71 68.9199 39.14 70.6099 37.87C71.5799 37.14 72.9699 34.67 74.2899 34.72C74.3799 34.72 74.4699 34.72 74.5599 34.72C74.8699 34.8 74.9499 35.06 75.0399 35.32C75.1599 35.52 75.2799 35.72 75.4099 35.92C75.5299 36.08 75.6399 36.23 75.7599 36.39C76.1599 36.83 76.5599 37.27 76.9699 37.71C77.0099 37.71 77.0399 37.71 77.0799 37.74C77.5499 38.02 78.0099 38.31 78.4899 38.59C78.5999 38.65 78.7499 38.66 78.8699 38.69L79.4699 39.01C80.2099 39.24 80.9599 39.41 81.7399 39.41C82.1399 39.57 82.5399 39.57 82.9499 39.41C83.1499 39.4 83.3499 39.38 83.5399 39.37C83.8199 39.45 84.1899 39.25 84.3699 39.64C84.6399 40.03 85.0299 40.27 85.4499 40.48C85.5699 40.56 85.6899 40.64 85.8099 40.72C86.0799 40.89 86.3399 41.09 86.6299 41.21C87.0699 41.4 87.5199 41.53 87.9699 41.68C88.0099 41.67 88.0499 41.65 88.0899 41.64C88.1299 41.64 88.1699 41.64 88.2199 41.64V41.67C88.2199 41.67 88.2999 41.73 88.3499 41.77C88.4199 41.77 88.4999 41.79 88.5699 41.8C88.7299 41.8 88.8899 41.8 89.0499 41.8C92.0299 41.31 93.9299 39.25 95.5799 36.85C95.9499 38.53 96.8199 42.92 99.2999 40.45C100.1 39.65 100.36 38.42 100.76 37.4C101.16 36.37 101.43 34.92 102.6 35.91C104.51 37.53 103.31 40.63 105.05 42.25C106.54 43.64 109.94 43.85 110.17 41.2L110.18 41.18ZM59.8399 39.95C59.8399 39.95 59.8999 39.96 59.9299 39.95C59.8999 39.95 59.8699 39.95 59.8399 39.95ZM63.0899 32.23C63.1199 32.29 63.1499 32.35 63.1899 32.4C63.1599 32.34 63.1299 32.28 63.0899 32.23ZM83.4499 35.95C83.5099 35.86 83.5499 35.77 83.5499 35.7C83.5499 35.78 83.5099 35.87 83.4499 35.95ZM88.3399 34.69C87.9899 34.88 87.6899 35.15 87.3699 35.39C87.0099 35.51 86.8999 35.14 86.6599 35.03C86.5999 34.8 86.2299 34.76 86.3099 34.45C86.4399 34.33 86.4499 34.21 86.3099 34.09C86.3099 34.05 86.3099 34.01 86.3099 33.97C86.6699 33.57 87.0199 33.18 87.3799 32.78C87.6199 32.62 87.8599 32.46 88.0999 32.3C88.4599 32.18 88.8099 31.99 89.1799 31.95C89.7299 31.88 89.7599 31.95 89.7499 32.53C89.5799 33.45 89.1999 34.22 88.3399 34.69Z" fill="black"/>
<path d="M137.35 45.37C137.55 45.33 137.75 45.29 137.95 45.25C138.99 45.05 140.03 44.85 141.07 44.65C141.23 44.61 141.39 44.57 141.55 44.53C142.78 44.23 144.01 43.95 145.23 43.63C146.41 43.32 147.57 42.96 148.74 42.62C149.16 42.57 149.5 42.23 149.94 42.26C150.22 42.14 150.5 42.02 150.78 41.9C151.9 41.45 153.03 41.01 154.15 40.56C154.34 40.48 154.54 40.41 154.74 40.34C154.9 40.26 155.06 40.18 155.22 40.1C156.6 39.42 158.33 38.86 159.54 37.93C160.4 37.27 160.57 35.75 159.18 35.65C159.1 35.62 159.01 35.59 158.93 35.56C158.14 35.93 157.35 36.3 156.55 36.66C156.23 36.81 155.9 36.94 155.57 37.07C155.54 37.09 155.5 37.1 155.46 37.1C152.44 39.14 148.27 40.22 144.78 41.14C144.58 41.18 144.38 41.22 144.18 41.26C141.1 41.98 137.98 42.8 134.83 43.1C134.51 43.13 134.2 43.15 133.88 43.18C133.56 43.02 133.23 43.03 132.91 43.18L132.56 43.22C131.2 43.12 130.11 42.53 129.34 41.4C129.27 41.23 129.19 41.06 129.12 40.89C129.02 40.66 129.22 40.7 129.33 40.67C129.69 40.76 130.05 40.85 130.4 40.94C130.64 40.97 130.88 41 131.12 41.03C131.28 41.03 131.44 41.03 131.6 41.03C131.68 41.04 131.76 41.06 131.84 41.07L132.08 40.91C132.08 40.91 132.16 40.94 132.2 40.95C133.06 40.77 133.91 40.54 134.63 40C135.06 39.67 135.48 39.34 135.91 39.01C135.96 38.94 136.01 38.86 136.06 38.79C136.7 38 137.06 37.07 137.43 36.14C137.47 36.04 137.47 35.92 137.49 35.8C137.52 35.6 137.55 35.4 137.58 35.2C137.59 35.16 137.61 35.12 137.62 35.08C137.69 35.08 137.76 35.08 137.84 35.08C137.81 34.64 137.78 34.2 137.74 33.76C137.7 33.72 137.65 33.67 137.61 33.63C137.53 33.28 137.44 32.93 137.36 32.58C137.05 32.1 136.7 31.65 136.17 31.39C135.94 31.27 135.74 31.07 135.45 31.15C135.21 31.1 134.97 31.04 134.72 31.02C134.49 31 134.25 31.02 134.01 31.03C133.81 31.06 133.61 31.09 133.41 31.11C133.33 31.11 133.25 31.11 133.18 31.11L132.82 31.27C132.5 31.39 132.18 31.51 131.86 31.63C131.63 31.75 131.39 31.86 131.17 32C130.31 32.53 129.64 33.26 128.97 33.99C128.23 34.68 127.68 35.51 127.2 36.4C127.07 36.64 126.94 36.87 126.82 37.11C126.45 37.7 126.24 38.35 126.13 39.04C126.09 39.24 126.05 39.44 126.01 39.64C125.82 39.85 125.86 40.11 125.89 40.36C125.88 40.44 125.86 40.52 125.85 40.61C125.7 40.8 125.7 41 125.85 41.2C125.86 41.28 125.88 41.36 125.89 41.44C125.89 41.6 125.89 41.76 125.89 41.92C126.04 42.28 126.19 42.65 126.34 43.01C126.34 43.08 126.34 43.15 126.35 43.22C126.44 43.3 126.52 43.39 126.61 43.47L127.55 44.41C127.63 44.46 127.71 44.51 127.79 44.56C128.19 44.75 128.59 44.94 128.99 45.13C129.43 45.26 129.87 45.4 130.31 45.53C130.55 45.57 130.79 45.61 131.03 45.65C131.35 45.68 131.66 45.71 131.98 45.73C132.26 45.73 132.55 45.73 132.83 45.73C133.07 45.73 133.32 45.73 133.56 45.73C134.04 45.71 134.53 45.83 135 45.64C135.13 45.59 135.31 45.64 135.47 45.64C135.75 45.6 136.03 45.56 136.31 45.52C136.67 45.48 137.03 45.44 137.39 45.4L137.35 45.37ZM131.37 34.94C131.48 34.9 131.59 34.85 131.7 34.81C131.75 34.81 131.8 34.81 131.85 34.81C132.25 35.05 132.64 35.28 133.04 35.52C133.55 35.85 134.11 36.13 134.37 36.73C134.28 36.84 134.2 36.95 134.11 37.07C133.71 36.92 133.3 36.92 132.9 37.07V37.11C132.72 37.11 132.52 37.1 132.32 37.09C132.27 37.06 132.23 37.03 132.18 36.99V36.96C132.18 36.96 132.11 36.96 132.06 36.96L131.1 36.84C130.98 36.84 130.86 36.84 130.75 36.84C130.45 36.71 130.12 36.75 129.94 36.43C130.01 36.29 130.09 36.16 130.16 36.02C130.56 35.66 130.96 35.3 131.36 34.94H131.37Z" fill="black"/>
<path d="M9.22993 38.42C9.17993 39.38 9.48993 40.34 9.89993 41.2C10.1699 41.78 10.8699 42.46 10.9399 43.07C10.9699 43.07 10.9999 43.07 11.0299 43.08C11.0299 43.11 11.0399 43.15 11.0499 43.18C11.2499 43.35 11.4399 43.52 11.6399 43.69C11.8299 44.81 14.3999 46.1 15.2899 46.6C16.7799 47.44 18.3499 47.87 20.0299 48.12C20.2199 48.15 20.3999 48.22 20.5899 48.21C21.1999 48.19 21.8199 48.15 22.4299 48.12C23.6199 47.99 24.6799 47.52 25.6899 46.92C25.7399 46.89 25.7599 46.83 25.7999 46.78C26.1099 46.76 26.2299 46.49 26.3999 46.3C26.8699 46.13 27.0899 45.71 27.3599 45.34C27.3899 45.22 27.4099 45.1 27.4399 44.98C27.4099 44.9 27.3799 44.81 27.3499 44.73C27.3499 44.39 27.1799 44.14 26.9799 43.89C26.7799 43.81 26.5899 43.74 26.3899 43.66C26.3899 43.63 26.3699 43.59 26.3699 43.56C26.2099 43.59 26.0499 43.63 25.8799 43.66C25.3999 43.57 24.6599 44.55 24.2999 44.81C23.6599 45.26 22.8699 45.62 22.0699 45.59L21.5899 45.69C21.2999 45.52 21.0099 45.52 20.7199 45.69H20.4899C20.0999 45.61 19.6999 45.54 19.3099 45.46C19.0999 45.42 18.8999 45.37 18.6899 45.32C18.5699 45.28 18.4499 45.24 18.3299 45.2C17.5699 44.83 16.8099 44.46 16.0599 44.09C15.8899 44 15.7399 43.88 15.5799 43.77C15.3799 43.65 15.1799 43.53 14.9799 43.41C13.6999 42.23 12.1799 40.79 11.8499 39C11.8199 38.92 11.7899 38.84 11.7599 38.76C11.1799 36.53 12.3699 34.22 13.3499 32.29C13.8999 31.19 14.5199 30.14 15.1799 29.1C15.5799 28.48 16.1299 27.13 16.7599 26.79C16.7599 26.75 16.7799 26.71 16.7899 26.68C16.8199 26.64 16.8599 26.6 16.8899 26.56C16.8599 26.56 16.8199 26.56 16.7899 26.56C17.1699 25.88 17.4999 25.18 18.0699 24.64C18.1099 24.64 18.1599 24.64 18.1999 24.64C18.1699 24.6 18.1299 24.56 18.0999 24.52C18.1299 24.48 18.1599 24.43 18.1799 24.39C18.2199 24.35 18.2599 24.31 18.3099 24.27C18.3099 24.27 18.3599 24.27 18.3599 24.25C18.3599 24.22 18.3399 24.19 18.3299 24.16C18.4099 24.08 18.4899 24 18.5699 23.92C18.5999 23.92 18.6399 23.92 18.6699 23.92C18.6399 23.88 18.5999 23.84 18.5699 23.8C18.7299 23.56 18.8899 23.32 19.0499 23.08C19.1599 22.96 19.2699 22.83 19.3799 22.71C19.5099 22.52 19.6399 22.32 19.7599 22.13C21.6799 19.63 23.6699 17.28 25.9199 15.06C28.3299 12.7 31.1899 10.88 33.6299 8.59003C33.6299 8.48003 33.6299 8.37003 33.6399 8.26003C33.6399 8.26003 33.6999 8.17003 33.7299 8.12003C33.7299 8.00003 33.7299 7.89003 33.7299 7.77003C33.6999 7.77003 33.6599 7.77003 33.6299 7.75003C33.6699 6.88003 32.9499 6.46003 31.9499 6.79003C26.2299 10.86 21.6399 15.77 17.0999 21.06C17.0499 21.14 16.9999 21.22 16.9499 21.29C16.5599 21.88 16.1599 22.48 15.7699 23.07C15.2599 23.83 14.7499 24.6 14.2299 25.36C14.1499 25.52 14.0699 25.68 13.9999 25.83C13.9499 25.91 13.8999 25.98 13.8599 26.06C13.6999 26.34 13.5299 26.62 13.3699 26.91C13.3299 26.99 13.2999 27.06 13.2599 27.14C13.0999 27.42 12.9299 27.7 12.7699 27.99C12.7299 28.07 12.6999 28.14 12.6599 28.22C12.3099 28.88 11.9599 29.53 11.6099 30.2C11.5399 30.33 11.5199 30.49 11.4799 30.63C11.3199 30.99 11.1599 31.35 10.9999 31.71C10.8399 32.07 10.6799 32.43 10.5199 32.79C10.2099 33.63 9.89993 34.48 9.58993 35.32C9.56993 35.39 9.56993 35.47 9.55993 35.54C9.51993 35.7 9.47993 35.86 9.43993 36.02C9.39993 36.14 9.35993 36.26 9.31993 36.38C9.09993 36.63 9.17993 36.93 9.19993 37.22C9.15993 37.34 9.11993 37.45 9.06993 37.57C9.09993 37.86 9.12993 38.14 9.15993 38.43L9.22993 38.42Z" fill="black"/>
<path d="M142.98 80.44C142.9 80.43 142.82 80.41 142.74 80.4C142.58 80.52 142.42 80.64 142.26 80.77C142.14 80.96 142.01 81.13 141.91 81.33C141.77 81.62 141.66 81.92 141.54 82.21C141.34 82.26 141.14 82.31 140.95 82.36C140.91 82.32 140.87 82.28 140.83 82.23C139.87 81.71 139.47 80.16 139.05 79.22C139 79.02 138.95 78.82 138.9 78.63C138.87 78.31 138.85 77.99 138.82 77.68V77.55C138.77 77.39 138.72 77.22 138.65 77.02C140.39 76.34 142.15 75.69 143.91 75.06C145.07 74.65 147.36 74.38 147.29 72.77C147.22 72.53 147.15 72.28 147.06 72.04C147.04 71.98 146.91 71.96 146.84 71.92L146.71 71.71C146.39 71.72 146.05 71.59 145.76 71.84C145.51 71.78 145.32 71.88 145.16 72.04C144.68 72.2 144.2 72.35 143.72 72.51C143.56 72.59 143.4 72.67 143.24 72.76C143 72.84 142.76 72.92 142.52 73C141.84 73.25 141.17 73.5 140.49 73.75C140.29 73.82 140.09 73.89 139.89 73.96C139.81 73.97 139.73 73.98 139.65 73.99V73.95C139.63 73.88 139.59 73.8 139.56 73.73C139.59 73.57 139.61 73.41 139.64 73.25C139.77 72.93 139.91 72.61 140.04 72.29C140.04 72.22 140.04 72.14 140.06 72.07C140.25 71.42 140.44 70.78 140.64 70.13C140.93 69.47 140.92 69.17 141.54 68.78C142.26 68.32 143.17 68 143.94 67.62C145.23 66.99 147.46 66.42 148.28 65.2C148.36 64.74 148.2 64.33 148.04 63.91C147.88 63.79 147.72 63.67 147.56 63.55C145.71 63.3 143.97 64.99 142.29 65.55C142.25 65.56 142.21 65.57 142.17 65.58C142.17 65.54 142.17 65.49 142.17 65.45C142.14 65.45 142.1 65.45 142.07 65.45C142.29 64.68 142.52 63.91 142.73 63.14C142.8 62.88 142.84 62.61 142.9 62.35L143.03 62.21C143.03 62.09 143.03 61.98 143.03 61.86C142.99 61.81 142.94 61.77 142.9 61.72C142.9 61.76 142.9 61.81 142.9 61.85C142.93 61.85 142.96 61.85 142.99 61.85C142.99 61.85 142.93 61.85 142.9 61.85C142.9 61.81 142.9 61.76 142.9 61.72C142.82 61.25 142.66 61.09 142.19 61.01C142.15 61.01 142.1 61.01 142.06 61.01C142.06 61.01 142.06 60.95 142.06 60.92C142.06 60.92 142.06 60.98 142.06 61.01C142.1 61.01 142.15 61.01 142.19 61.01C142.14 60.97 142.1 60.92 142.05 60.88C141.85 60.73 141.66 60.73 141.46 60.88C141.41 60.92 141.37 60.97 141.32 61.01C141.17 61.05 141.02 61.1 140.87 61.14C140.83 61.18 140.79 61.22 140.75 61.26C140 62.4 139.77 64.08 139.38 65.39C138.95 66.84 138.54 68.3 138.12 69.76C138.04 70 137.96 70.24 137.88 70.48C137.71 71 137.55 71.52 137.39 72.04C137.37 72.11 137.39 72.19 137.4 72.27C137.32 72.47 137.24 72.67 137.16 72.87C137.08 73.19 137 73.51 136.92 73.83C136.84 74.11 136.76 74.39 136.68 74.67C136.64 74.79 136.6 74.91 136.56 75.03C136.56 75.11 136.56 75.19 136.56 75.27C136.44 75.75 136.32 76.23 136.2 76.71C136.16 76.87 136.12 77.03 136.08 77.18C136.08 77.22 136.08 77.27 136.08 77.31H136.05C136.05 77.31 136.05 77.39 136.05 77.43H136.08C136.04 77.58 136 77.74 135.96 77.9C135.96 77.94 135.96 77.99 135.96 78.03H135.93C135.93 78.03 135.89 78.04 135.89 78.05C135.89 78.08 135.91 78.11 135.93 78.14C135.9 78.34 135.88 78.53 135.85 78.73C135.85 79.1 135.85 79.46 135.85 79.83C135.85 79.98 135.85 80.13 135.84 80.29C135.89 80.48 135.93 80.68 136 80.87C136.14 81.32 136.3 81.76 136.45 82.21C137.79 83.8 139.47 85.2 141.72 84.47C142.04 84.46 142.37 84.47 142.57 84.14C143.51 83.69 144.16 82.96 144.46 81.98C144.74 81.05 144.09 80.4 143.04 80.45L142.98 80.44Z" fill="black"/>
<path d="M120.83 78.86C120.05 76.2 118.82 74.34 116.26 73.1C116.18 73.06 116.1 73.02 116.02 72.98C115.94 72.95 115.86 72.92 115.78 72.89C115.5 72.8 115.22 72.71 114.95 72.62C114.75 72.58 114.55 72.54 114.35 72.5C114.19 72.47 114.03 72.44 113.87 72.41C113.71 72.38 113.56 72.43 113.6 72.11C113.72 71.19 114.04 70.37 114.61 69.65C115.22 68.76 116.06 68.14 117.05 67.78C117.65 67.56 117.97 67.21 118.16 66.66C118.13 66.5 118.1 66.33 118.07 66.17C117.98 65.94 117.9 65.7 117.81 65.47C117.69 65.4 117.58 65.32 117.46 65.25C117.22 65.25 116.98 65.25 116.75 65.25C116.47 65.36 116.2 65.48 115.92 65.59C114.84 66 113.93 66.65 113.15 67.49C113.12 67.49 113.08 67.5 113.05 67.51C112.97 67.59 112.88 67.68 112.8 67.76C112.55 68.15 112.31 68.55 112.06 68.94C112 69.07 111.94 69.2 111.87 69.33C111.47 70.08 111.18 70.85 111.1 71.7C111.08 72.02 110.87 72.33 111.1 72.65C110.93 73.02 110.93 73.38 111.1 73.75C111.07 73.79 111.04 73.83 111.01 73.86C111 73.89 111 73.93 111 73.96C111.26 74.33 111.43 74.79 111.94 74.92C112.31 74.92 112.67 74.92 113.04 74.92C114.11 75.01 115.15 75.23 116.02 75.9C116.85 76.54 117.55 77.29 117.71 78.39C117.75 78.55 117.79 78.71 117.83 78.87C118.06 79.22 117.91 79.6 117.92 79.96C117.92 80 117.92 80.04 117.92 80.08C117.92 80.32 117.92 80.56 117.92 80.8C117.54 82.05 117.1 83.2 115.92 83.92C115.58 84.25 114.57 84.85 114.06 84.75C113.53 84.64 113.39 84.13 113.01 83.74C112.14 82.85 110.93 82.33 109.93 81.62C109.41 81.25 108.75 80.84 108.42 80.28C108.23 79.96 108.34 79.54 108.12 79.21C107.53 78.33 106.24 78.47 105.98 79.49C105.97 79.53 105.95 79.57 105.94 79.61C105.79 79.85 105.78 80.09 105.94 80.33C105.95 80.41 105.97 80.49 105.98 80.57C106.08 81.18 106.48 81.63 106.81 82.12L107.51 82.74C108.4 83.31 111.71 84.81 111.45 86.07C111.54 86.3 111.63 86.54 111.71 86.77C112.64 88.1 115.28 87.09 116.42 86.53C118.06 85.73 119.34 84.42 120.21 82.82C120.53 81.98 120.85 81.13 120.83 80.21C121 79.96 121 79.72 120.83 79.47C120.83 79.27 120.83 79.08 120.83 78.88V78.86Z" fill="black"/>
<path d="M48.3099 27.5C47.1399 27.68 46.0199 27.98 44.9899 28.58C44.4799 28.88 43.9999 29.19 43.6299 29.66C43.4399 29.75 43.2899 29.97 43.0399 29.78C42.9599 29.59 42.8699 29.4 42.7899 29.21L42.1999 28.86L42.0799 28.96C42.0799 28.96 41.9999 28.96 41.9599 28.96C41.9999 28.96 42.0399 28.96 42.0799 28.96C42.1199 28.93 42.1599 28.89 42.1999 28.86C42.1599 28.86 42.1199 28.86 42.0699 28.86V28.83C41.9599 28.69 41.8399 28.69 41.7099 28.83C41.6699 28.84 41.6299 28.86 41.5899 28.87V28.83C41.2099 29.01 40.7899 29.16 40.6299 29.62C40.5799 29.76 40.5399 29.9 40.4999 30.04C40.4999 30.12 40.5199 30.19 40.5299 30.27C40.6099 30.47 40.6899 30.67 40.7699 30.87C40.9299 31.19 41.0999 31.51 41.2599 31.83C41.4199 32.03 41.5799 32.23 41.7499 32.43C41.6999 32.63 41.6499 32.83 41.5999 33.02C41.5699 33.18 41.5399 33.34 41.5099 33.51C41.2899 33.76 41.3799 34.06 41.3899 34.35C41.2999 35.17 41.4299 35.96 41.6299 36.74C41.7799 37.06 41.9299 37.39 42.0799 37.71C42.1199 37.82 42.1699 37.93 42.2099 38.04C42.5699 38.63 42.9399 39.21 43.4099 39.71C43.7299 39.99 44.0499 40.27 44.3699 40.55C44.4499 40.6 44.5299 40.65 44.5999 40.7C44.8799 40.89 45.1599 41.08 45.4399 41.26C45.4799 41.27 45.5199 41.28 45.5599 41.29C46.2399 41.54 46.8999 41.82 47.5899 42.03C47.9699 42.15 48.3899 42.15 48.7899 42.21C49.0799 42.21 49.3599 42.21 49.6499 42.21V42.24C49.9599 42.2 50.2799 42.17 50.5999 42.13C51.8999 41.94 52.1599 39.69 50.7299 39.71C50.7299 39.68 50.7099 39.64 50.7099 39.61C50.5899 39.61 50.4699 39.61 50.3499 39.61V39.57C50.3499 39.57 50.2699 39.65 50.2299 39.69H49.7599C49.4399 39.53 49.1099 39.53 48.7899 39.69V39.73C47.5099 39.67 45.7799 38.79 45.0799 37.7C44.9599 37.58 44.8399 37.45 44.7099 37.33C44.5099 36.97 44.3099 36.61 44.1099 36.25C44.0699 36.16 44.0399 36.07 43.9999 35.98C43.9699 35.91 43.9299 35.83 43.8999 35.76C43.8899 35.56 43.8799 35.36 43.8599 35.16H43.8999C43.8999 35.09 43.8999 35.01 43.8999 34.93C43.9299 34.73 43.9699 34.53 43.9999 34.33C44.1199 34.33 44.2399 34.35 44.3599 34.36C44.7599 34.48 45.1599 34.6 45.5599 34.72L45.9199 34.84C46.5599 34.83 47.1999 34.82 47.8299 34.81C47.9099 34.78 47.9899 34.75 48.0799 34.73C49.7199 34.39 50.9599 33.47 51.9099 32.12C52.0499 31.92 52.1699 31.7 52.2899 31.48C52.4699 30.92 52.6699 30.36 52.8099 29.79C52.9499 29.21 52.9199 28.63 52.4999 28.14C51.0399 27.73 49.8099 27.55 48.3099 27.51V27.5ZM44.9599 31.99C44.8999 31.66 45.1799 31.53 45.3599 31.38C46.7099 30.35 48.1899 29.69 49.9499 29.95C49.8199 31.32 47.1199 33.31 44.9499 31.98L44.9599 31.99Z" fill="black"/>
<path d="M121.3 26.78C120.49 26.68 120 27.26 119.43 27.74C118.29 28.71 117.16 29.71 116.13 30.8C114.26 32.79 112.23 35.54 112.32 38.41H112.28C112.13 38.84 112.12 39.28 112.28 39.72C112.29 39.76 112.31 39.8 112.32 39.84C112.28 40.66 112.52 41.43 112.78 42.19C112.95 42.69 113.18 43.17 113.38 43.66C114.36 44.97 117.27 48.44 119.12 46.65C119.26 46.14 119.37 45.62 119.12 45.11C118.78 44.7 118.25 44.63 117.81 44.4C116.19 43.8 115.07 41.98 114.92 40.32C114.92 39.68 114.92 39.04 114.92 38.4C115.38 35.87 116.52 33.94 118.32 32.1C119.09 31.31 119.93 30.59 120.78 29.89C121.33 29.43 122.31 28.87 122.47 28.12L122.38 27.86C122.47 27.24 121.83 26.85 121.3 26.78Z" fill="black"/>
<path d="M129.94 69.65C129.75 69.44 129.79 69.18 129.82 68.93C129.82 68.89 129.82 68.85 129.82 68.81C129.78 68.61 129.74 68.41 129.7 68.21C129.7 68.17 129.7 68.13 129.7 68.09C129.7 68.05 129.7 68 129.7 67.96H129.67C129.67 67.96 129.67 67.89 129.67 67.84C129.56 67.49 129.44 67.13 129.33 66.78L128.87 66.64C128.87 66.64 128.78 66.64 128.74 66.64C128.78 66.64 128.83 66.64 128.87 66.64C128.82 66.61 128.78 66.58 128.73 66.55C128.61 66.55 128.5 66.55 128.38 66.55C128.38 66.58 128.37 66.62 128.36 66.65C128.28 66.65 128.21 66.65 128.13 66.64C128.01 66.69 127.89 66.75 127.77 66.8C127.62 66.95 127.46 67.11 127.31 67.26C127.27 67.38 127.23 67.5 127.19 67.62C127.19 67.78 127.19 67.94 127.19 68.1C127.22 68.34 127.24 68.58 127.27 68.82C127.31 69.1 127.35 69.38 127.39 69.66C127.39 69.93 127.41 70.21 127.42 70.48C127.46 70.54 127.52 70.6 127.53 70.66C127.57 70.96 127.6 71.27 127.64 71.57C127.68 72.25 127.72 72.93 127.76 73.61V73.97C127.81 74.05 127.89 74.13 127.89 74.22C127.93 75.01 127.96 75.81 128 76.6C128 76.68 128 76.76 128 76.84C128.01 76.92 128.03 77 128.04 77.08C128.03 77.2 128.01 77.32 128 77.44C128.01 77.55 128.02 77.67 128.03 77.78C128.03 78.47 128.03 79.15 128.03 79.84C128.02 80.11 128.01 80.39 128 80.66C127.96 81.7 127.92 82.74 127.88 83.77C127.78 84.86 128.19 87.08 129.8 85.69C130.77 84.85 130.34 82.57 130.51 81.38C130.52 81.34 130.54 81.3 130.55 81.26C130.92 80.07 130.93 77.5 130.52 76.35C130.29 74.12 130.14 71.88 129.96 69.65H129.94Z" fill="black"/>
<path d="M59.9199 13.99C60.0099 13.63 60.0999 13.28 60.1899 12.92C60.1899 12.88 60.1899 12.84 60.1899 12.8C60.0699 12.16 59.7499 11.81 59.2299 11.71C59.1799 11.67 59.1399 11.62 59.0899 11.58C58.9699 11.45 58.8599 11.45 58.7399 11.58C58.6899 11.62 58.6499 11.67 58.5999 11.71C57.8299 11.67 57.4099 13.27 57.1699 13.78C56.6199 14.93 56.0499 16.07 55.4799 17.22C55.4399 17.3 55.3999 17.38 55.3599 17.46C54.9499 18.37 54.5399 19.27 54.0899 20.17C53.7799 20.77 52.9499 21.88 52.9999 22.61C52.9999 22.65 52.9999 22.69 52.9999 22.73C52.9999 22.85 52.9999 22.97 52.9999 23.09H52.9599C52.9599 23.16 52.9799 23.24 52.9899 23.32C53.2899 23.66 53.5099 24.11 54.0599 24.14C54.2199 24.14 54.3799 24.14 54.5399 24.14C55.0099 24.03 55.1799 23.62 55.3699 23.26C55.6299 22.77 55.8699 22.27 56.1099 21.77L56.7999 20.44C56.8499 20.29 56.8999 20.13 56.9499 19.98C57.3899 19.1 57.8299 18.22 58.2699 17.35C58.8199 16.23 59.3699 15.11 59.9199 13.99ZM59.0999 11.63C59.0999 11.63 59.0999 11.69 59.0999 11.72C59.0999 11.72 59.0999 11.66 59.0999 11.63Z" fill="black"/>
<path d="M103.65 70.25C103.62 70.13 103.6 70.01 103.57 69.89C103.57 69.49 103.57 69.09 103.57 68.69C103.57 68.65 103.57 68.61 103.57 68.57C103.57 68.49 103.57 68.41 103.57 68.33C103.56 68.29 103.54 68.25 103.53 68.21C103.5 67.77 103.48 67.33 103.45 66.89L103.33 66.29C103.32 66.13 103.3 65.97 103.29 65.81C103.26 65.76 103.23 65.72 103.2 65.67C103.2 65.56 103.2 65.45 103.19 65.34C102.77 64.76 102.18 64.64 101.52 64.75C101.42 64.78 101.32 64.81 101.22 64.84C101.08 64.88 100.95 64.92 100.81 64.96C100.6 64.62 100.51 64.19 100.08 64.03C99.8399 63.98 99.5999 63.92 99.3599 63.87C99.3199 63.88 99.2799 63.9 99.2399 63.91C99.0799 63.98 98.9199 64.05 98.7599 64.12C98.0199 64.72 97.5299 65.54 96.9599 66.28C96.8699 66.4 96.7699 66.51 96.6899 66.63C96.4199 67.07 96.1499 67.51 95.8799 67.95L95.6499 68.3C95.4999 68.54 95.3499 68.79 95.1999 69.03C94.6099 70.02 94.1599 71.08 93.7199 72.14L93.4799 72.74C93.3699 73.06 93.2599 73.38 93.1499 73.7C92.7599 75.59 92.6799 77.14 92.7899 79.08C92.8299 79.2 92.8599 79.31 92.8999 79.43C94.1699 81.68 96.2699 84.37 99.2099 82.9C101.79 81.61 103.11 78.08 103.34 75.38C103.37 75.16 103.4 74.94 103.44 74.72C103.48 74.46 103.53 74.2 103.58 73.94C103.58 73.86 103.58 73.78 103.58 73.7C103.61 73.1 103.63 72.51 103.66 71.91C103.67 71.87 103.69 71.83 103.7 71.79C103.86 71.31 103.86 70.83 103.7 70.35L103.66 70.23L103.65 70.25ZM101.01 72.05C100.87 73.42 99.3599 83.24 96.5899 79.96C95.9399 79.32 95.3999 78.62 95.2999 77.67C95.2499 77.43 95.1999 77.19 95.1399 76.95H95.1799C95.3399 76.6 95.3399 76.24 95.1799 75.87H95.1399C95.1899 74.75 95.5699 73.69 96.0099 72.66C96.5299 71.44 97.1599 70.27 97.8999 69.17C98.0299 68.97 98.1599 68.78 98.2899 68.58C98.5999 68.19 98.9099 67.79 99.2299 67.41C99.6599 66.91 100.11 66.42 100.55 65.92C100.86 65.89 100.77 66.14 100.81 66.3C100.89 67.02 100.97 67.73 101.05 68.45C101.05 68.53 101.05 68.61 101.05 68.69C101.04 68.73 101.02 68.77 101.01 68.81C101.02 68.89 101.04 68.97 101.05 69.05C101.04 69.17 101.02 69.29 101.01 69.41C101.02 69.49 101.03 69.56 101.05 69.64C101.04 70.12 101.03 70.6 101.01 71.09C101.02 71.21 101.03 71.34 101.04 71.46C101.03 71.66 101.02 71.85 101 72.05H101.01Z" fill="black"/>
<path d="M83.0799 81.61C82.4999 80.54 81.9499 78.71 81.0399 77.9C80.9599 77.7 80.8799 77.5 80.7999 77.3C80.4799 76.38 80.1599 75.46 79.8299 74.54C79.7799 74.38 79.7299 74.23 79.6799 74.07C79.6599 73.78 79.7599 73.56 79.9799 73.35C80.3799 72.97 80.7499 72.54 81.1299 72.14C81.2899 71.9 81.4499 71.66 81.6099 71.42C83.3699 68.86 84.6999 66.85 85.3099 63.77C85.3199 63.73 85.3399 63.69 85.3499 63.65C85.5099 63.37 85.5099 63.09 85.3499 62.81C85.3399 62.77 85.3199 62.73 85.3099 62.69C84.9399 60.85 84.4599 59.16 82.9399 57.93C82.3299 57.44 81.6299 57.09 80.8899 56.84C80.0699 56.55 78.8499 56.63 78.1399 56.25C78.0799 56.11 77.9999 56.11 77.9099 56.21C77.2699 56.21 76.6299 56.21 75.9899 56.21C75.2299 56.25 74.4699 56.29 73.7099 56.33C72.8099 56.73 71.5599 56.72 70.5899 56.92C69.2999 57.18 68.0299 57.49 66.7599 57.85C65.5499 58.19 64.3399 58.54 63.1299 58.91C62.2699 59.17 60.4799 59.37 60.0299 60.3C59.9999 60.57 59.9699 60.85 59.9399 61.12C60.6099 62.26 60.9599 62.25 62.1099 61.86C63.0099 61.55 63.9299 61.31 64.8399 61.03C64.9599 61.02 65.0799 61.01 65.1899 61L65.4399 60.92C65.6399 60.87 65.8399 60.82 66.0299 60.77C66.9099 60.54 67.7799 60.28 68.6699 60.07C69.2599 59.93 69.8699 59.84 70.4699 59.73H70.8199C70.8199 62.06 70.3099 64.62 69.7699 66.88C69.7599 66.93 69.7399 66.97 69.7299 67.02H69.7799C69.7799 67.06 69.7799 67.1 69.7799 67.15C69.7799 67.19 69.7799 67.23 69.7799 67.27H69.7499C69.7499 67.27 69.6799 67.27 69.6399 67.27C69.6699 67.31 69.7099 67.35 69.7399 67.39C69.6999 67.55 69.6599 67.71 69.6199 67.87C69.6099 67.88 69.5799 67.9 69.5799 67.9C69.5799 67.93 69.6099 67.96 69.6199 67.99C69.5899 68.15 69.5699 68.31 69.5399 68.47C69.3499 68.68 69.3899 68.94 69.4199 69.19C69.3799 69.31 69.3399 69.43 69.2999 69.55C69.2999 69.59 69.2999 69.64 69.2999 69.68L69.2699 69.67C69.2399 69.72 69.2099 69.76 69.1699 69.81C69.1299 70.08 69.0999 70.36 69.0599 70.63C68.9799 70.91 68.8999 71.19 68.8199 71.47C68.8199 71.55 68.8199 71.63 68.8199 71.71C68.7399 71.95 68.6599 72.19 68.5799 72.43C68.5799 72.51 68.5799 72.59 68.5799 72.67C68.4999 72.91 68.4199 73.15 68.3399 73.39C68.2899 73.55 68.2299 73.71 68.1799 73.87C68.1399 74.03 68.0999 74.19 68.0599 74.36H68.0999C68.0199 74.63 67.9399 74.91 67.8599 75.19C67.7799 75.47 67.6999 75.75 67.6199 76.03C67.5399 76.27 67.4599 76.51 67.3799 76.75C67.2999 77.01 67.2299 77.26 67.1399 77.52C66.8999 78.26 66.6599 79 66.4199 79.74C66.3399 79.94 66.2599 80.14 66.1799 80.34C66.1399 80.5 66.0999 80.66 66.0599 80.82C65.9399 81.1 65.8199 81.38 65.6999 81.66C65.6999 81.7 65.6999 81.74 65.6999 81.78C65.6999 81.82 65.6999 81.87 65.6999 81.91H65.6699C65.6699 81.91 65.5999 81.99 65.5699 82.04C65.5699 82.12 65.5499 82.19 65.5399 82.27C65.8399 83.89 67.6499 83.37 68.1799 82.27C68.2599 82.03 68.3399 81.79 68.4199 81.55C68.5899 81.08 68.7599 80.6 68.9299 80.13C68.9599 80.08 68.9899 80.04 69.0199 79.99H69.0399C69.0399 79.99 69.0899 79.98 69.0899 79.97C69.0899 79.94 69.0699 79.91 69.0599 79.88C69.0399 79.85 69.0399 79.81 69.0599 79.78C69.0899 79.78 69.1199 79.76 69.1499 79.76C69.1499 79.72 69.1499 79.68 69.1499 79.64H69.1699C69.1699 79.64 69.1699 79.57 69.1699 79.53L69.4099 78.69C69.6899 77.73 69.9699 76.78 70.2399 75.82C70.3099 75.62 70.3799 75.42 70.4499 75.22C70.7399 74.07 71.0299 72.92 71.3099 71.77C71.4499 71.21 71.5599 70.65 71.6799 70.08C71.7499 69.88 71.8199 69.68 71.8899 69.48C72.1199 68.19 72.2399 66.78 72.6499 65.53C72.6499 65.49 72.6499 65.45 72.6499 65.41C72.6499 65.33 72.6499 65.25 72.6499 65.17C72.7199 64.76 72.7999 64.35 72.8699 63.94C72.9499 63.47 73.0199 63 73.0899 62.54C73.0899 62.5 73.0899 62.45 73.0899 62.41H73.1199C73.1199 62.41 73.1599 62.4 73.1599 62.39C73.1599 62.36 73.1399 62.33 73.1199 62.3C73.0799 61.66 73.1499 59.81 73.5799 59.33C74.2099 59.28 74.8499 59.23 75.4799 59.18C75.7699 59.18 76.0599 59.18 76.3399 59.18C77.5899 59.24 80.6199 59.27 81.2499 60.62C81.3299 60.7 81.3999 60.77 81.4799 60.85C81.6199 60.94 81.8299 60.99 81.8999 61.12C82.0999 61.54 82.2499 61.98 82.4199 62.42C82.4399 62.45 82.4499 62.49 82.4499 62.52C82.4899 62.72 82.5399 62.92 82.5799 63.12C82.5699 63.32 82.5599 63.53 82.5399 63.73C82.5499 63.77 82.5599 63.82 82.5799 63.86C82.5499 65.92 81.1499 67.39 79.9199 68.86C79.7699 68.99 79.6099 69.11 79.4599 69.24C79.3299 69.44 79.1999 69.63 79.0699 69.83C78.9499 69.99 78.8399 70.14 78.7199 70.3C78.5399 70.39 78.5799 70.76 78.2499 70.65C78.1699 70.62 78.0899 70.59 78.0099 70.55C77.9199 70.55 77.8399 70.55 77.7499 70.55C77.7199 70.55 77.6799 70.55 77.6499 70.55C77.6499 70.58 77.6499 70.61 77.6499 70.64C77.3299 70.61 77.0099 70.58 76.6899 70.55C76.6499 70.59 76.6099 70.63 76.5699 70.68C76.4899 70.68 76.4099 70.68 76.3299 70.68C76.1699 70.95 75.8299 71.12 75.8599 71.5C75.8599 71.62 75.8599 71.74 75.8599 71.87C75.8899 72.11 75.9099 72.35 75.9399 72.58C75.9599 72.61 75.9699 72.65 75.9699 72.68C75.9999 72.73 76.0399 72.77 76.0699 72.82H76.0999C76.0999 72.82 76.0999 72.9 76.0999 72.94H76.0699C76.0699 73.08 76.0799 73.24 76.0899 73.4C76.1199 73.42 76.1799 73.44 76.1799 73.46C76.1799 74.29 76.6999 74.7 77.4099 74.95C77.4399 75 77.4799 75.04 77.5099 75.09H77.5399C77.5399 75.09 77.5399 75.16 77.5399 75.21C77.5399 75.28 77.5399 75.36 77.5299 75.43C77.5599 75.48 77.5999 75.52 77.6299 75.57H77.6599C77.6599 75.57 77.6599 75.64 77.6599 75.69C77.7099 75.97 77.7699 76.25 77.8199 76.53C77.8499 76.68 77.8599 76.84 77.8799 76.99C77.9199 77.15 77.9699 77.31 78.0099 77.48L78.3699 78.44C78.4499 78.64 78.5299 78.84 78.6099 79.04C80.0699 81.72 81.6599 84.15 83.5099 86.57C83.5499 86.65 83.5899 86.73 83.6299 86.81C83.8699 87.09 84.1099 87.37 84.3499 87.65C84.4699 87.77 84.5899 87.89 84.7099 88.01C84.8499 88.13 84.9799 88.27 85.1299 88.38C85.2099 88.44 85.3199 88.45 85.4199 88.48H85.5499L85.5399 88.52C85.6199 88.52 85.7099 88.52 85.7899 88.52V88.49C85.7899 88.49 85.8599 88.49 85.8999 88.49C88.4899 87.27 84.4699 83.44 83.3999 82.28C83.2799 82.08 83.1599 81.88 83.0399 81.68L83.0799 81.61Z" fill="black"/>
</svg>
