<svg width="551" height="68" viewBox="0 0 551 68" fill="none" xmlns="http://www.w3.org/2000/svg">
<path d="M207.993 39.6741C207.829 39.3975 207.473 39.3421 207.171 39.1762C207.171 39.1762 207.117 39.1762 207.117 39.2038C207.117 39.2591 207.062 39.3145 207.062 39.3421C207.199 39.5081 207.281 39.7017 207.199 39.923C207.199 40.006 207.199 40.089 207.199 40.172C207.39 40.5316 207.555 40.8912 207.5 41.3061C207.774 41.6657 207.61 42.1083 207.747 42.4679C207.884 42.8552 207.774 43.3255 207.966 43.7404C207.966 44.5426 208.158 45.3725 207.829 46.147C207.801 46.23 207.829 46.313 207.829 46.3959C207.911 46.8109 207.555 47.1428 207.664 47.5578C207.336 47.7514 207.692 48.1663 207.39 48.36C207.39 48.6642 207.253 48.9685 207.144 49.2451C206.952 49.7431 206.815 50.2963 206.596 50.7942C205.938 52.1773 205.171 53.4774 204.24 54.6946C204.076 54.9159 203.884 55.1095 203.719 55.3308C203.555 55.5521 203.418 55.7734 203.254 55.967C202.925 56.3266 202.596 56.7139 202.185 56.9905C201.884 57.1841 201.637 57.4054 201.363 57.6267C201.281 57.6821 201.226 57.8204 201.117 57.848C200.815 57.931 200.706 58.263 200.487 58.3183C200.213 58.4013 200.076 58.6502 199.829 58.7332C199.61 58.8162 199.391 59.0098 199.172 59.1481C198.295 59.7567 197.391 60.2823 196.459 60.7525C195.555 61.1951 195.363 61.2228 194.542 61.1122C194.377 61.1122 194.24 61.0292 194.103 60.9462C193.199 60.3929 192.514 59.6461 191.994 58.7332C191.857 58.4843 191.665 58.2906 191.61 58.014C191.501 57.5714 191.473 57.1012 191.446 56.6309C191.446 56.1606 191.473 55.6904 191.555 55.1925C191.61 54.7499 191.692 54.2796 191.802 53.8647C191.994 53.2008 192.158 52.5093 192.377 51.8454C192.651 50.9602 192.843 50.075 193.062 49.1898C193.281 48.3046 193.501 47.4194 193.692 46.5343C193.802 46.0087 193.994 45.4831 193.911 44.9299C193.911 44.7362 193.939 44.5149 193.966 44.266C193.09 44.1277 192.268 44.1553 191.473 44.4319C191.309 44.4873 191.172 44.5426 191.007 44.5703C190.405 44.7362 189.829 45.0405 189.336 45.4001C188.624 45.9257 187.939 46.4513 187.254 46.9769C186.871 47.2535 186.487 47.5024 186.049 47.6684C185.83 47.7514 185.665 48.028 185.391 47.945C185.09 47.862 184.98 48.194 184.706 48.1663C184.213 48.4153 183.747 48.2493 183.336 47.9727C182.816 47.6407 182.295 47.2811 181.775 46.9215C180.624 46.1193 179.501 45.2895 178.296 44.5426C177.775 44.2383 177.309 43.8787 176.789 43.6021C176.076 43.2425 175.446 42.7999 174.844 42.219C174.898 42.1083 174.926 41.9424 175.008 41.804C175.255 41.4168 175.419 40.9742 175.529 40.5316C175.556 40.338 175.529 40.1443 175.556 39.9784C175.748 39.2868 175.775 38.5953 175.802 37.876C175.802 37.0738 175.529 36.3546 174.926 35.7737C174.789 35.6354 174.679 35.5248 174.487 35.4418C174.35 35.3865 174.296 35.1375 174.159 35.0269C173.83 34.7502 173.446 34.5289 173.09 34.28C172.844 34.114 172.57 33.9757 172.323 33.8374C171.94 33.948 171.912 33.5054 171.638 33.4225C171.09 33.2841 170.57 32.9522 169.967 32.9799C169.857 32.9799 169.72 32.9245 169.583 32.8692C168.926 32.6203 168.214 32.5096 167.501 32.5649C166.981 32.5926 166.433 32.7309 165.912 32.8416C165.803 32.8416 165.721 32.9522 165.611 32.9522C165.173 33.0352 164.789 33.3118 164.378 33.4778C163.419 33.865 162.844 34.1417 162.132 34.6396C161.858 34.8332 161.611 35.0545 161.337 35.1652C161.145 35.2205 161.008 35.3311 160.871 35.4418C160.68 35.5801 160.515 35.7461 160.324 35.912C159.858 36.2993 159.447 36.7419 159.063 37.1845C158.844 37.4334 158.707 37.7377 158.515 37.9867C157.913 38.8442 157.283 39.6464 156.707 40.5316C156.269 41.1955 155.94 41.9147 155.584 42.6339C155.42 42.9659 155.255 43.3255 154.954 43.5744C154.872 43.6574 154.735 43.6574 154.57 43.7127C154.57 43.5468 154.515 43.4084 154.57 43.3531C154.762 43.0765 154.707 42.7999 154.735 42.4956C154.789 41.804 154.488 41.1678 154.543 40.5316C154.269 40.3103 154.022 40.2826 153.748 40.2826C152.598 40.2826 151.447 40.2826 150.296 40.2826H149.968C148.242 40.2826 146.516 40.2826 144.79 40.2826C144.543 40.2826 144.297 40.2826 144.05 40.2826C142.269 40.421 140.516 40.5593 138.735 40.6976C138.406 40.6976 138.105 40.7252 137.776 40.8635C137.53 40.9465 137.228 40.8635 136.954 40.8912C136.68 40.8912 136.434 41.0295 136.16 41.0295C135.037 41.0848 133.968 41.3061 132.872 41.4998C130.927 41.8317 129.064 42.4126 127.147 42.7999C126.845 42.8552 126.571 42.9659 126.27 43.0212C125.941 43.0765 125.722 43.3531 125.393 43.3808C125.119 43.3808 124.845 43.5191 124.599 43.6297C124.325 43.7404 123.996 43.7957 123.722 43.9894C123.503 44.1277 123.229 44.1553 122.955 44.1553C122.681 44.1553 122.434 44.2383 122.297 44.3766C121.969 44.6532 121.558 44.6532 121.229 44.8745C121.119 44.9575 120.982 44.9852 120.845 44.9575C120.571 44.9575 120.38 45.0405 120.188 45.1788C120.051 45.2618 119.914 45.4278 119.777 45.4278C119.284 45.4831 118.873 45.7597 118.407 45.9534C117.585 46.2576 116.791 46.6172 115.996 46.9492C115.585 47.1152 115.202 47.3365 114.818 47.5024C114.407 47.6961 114.024 47.8897 113.613 48.0557C113.202 48.2493 112.709 48.36 112.38 48.6642C111.996 48.9962 111.448 48.9685 111.12 49.3558C110.709 49.4388 110.435 49.7431 110.106 49.9367C108.079 50.9878 106.051 52.039 103.997 53.0902C103.832 53.1731 103.64 53.2285 103.476 53.3115C102.106 52.2326 100.682 51.2645 99.4214 50.1027C98.7913 49.5218 98.1886 48.8579 97.6132 48.2216C97.3667 47.945 97.1475 47.6131 96.9283 47.3088C96.7092 46.9492 96.5722 46.5619 96.3256 46.23C96.079 45.9257 96.1886 45.4831 95.8599 45.2065C95.8051 45.1788 95.8325 45.0682 95.8051 44.9852C95.7503 44.7086 95.7503 44.4319 95.6133 44.183C95.4489 43.851 95.4489 43.4914 95.4489 43.1595C95.4489 42.9382 95.4489 42.7169 95.4489 42.6339C95.7503 41.9147 96.2982 41.5551 96.7914 41.1955C97.1201 40.9465 97.4763 40.7529 97.8598 40.5593C98.2434 40.3656 98.5173 40.4486 98.7913 40.7806C98.9557 40.9742 99.12 41.2231 99.257 41.4444C99.668 42.136 100.189 42.7169 100.901 43.1042C101.038 43.1872 101.175 43.2978 101.257 43.3531C101.367 43.3255 101.476 43.2701 101.558 43.2701C102.051 43.2148 102.106 43.1318 102.134 42.6892C102.161 42.053 102.079 41.4168 101.914 40.8359C101.805 40.4209 101.695 39.9507 101.421 39.5634C101.12 39.0932 100.736 38.7336 100.298 38.374C99.394 37.6824 98.3529 37.3505 97.2845 37.0462C96.9557 37.1845 96.8735 36.7972 96.5722 36.7696C96.0243 36.7419 95.5037 36.6866 94.9832 36.7696C94.5722 37.1568 94.3257 37.6271 94.0791 38.0697C93.5312 38.9549 93.2572 39.9507 92.9833 40.9742C92.7093 41.9424 92.7367 42.9105 92.9833 43.8787C93.0107 44.0447 93.1202 44.183 93.1202 44.349C93.1202 44.8192 93.3942 45.2065 93.5586 45.6214C93.7504 46.1193 94.0791 46.5896 94.3257 47.0598C95.1476 48.4983 96.1064 49.7984 97.1749 51.0432C98.2434 52.288 99.2022 53.6157 100.106 54.9988C100.216 55.1925 100.353 55.3584 100.435 55.5797C100.49 55.7181 100.49 55.884 100.517 56.0223C100.161 56.3819 99.7502 56.6032 99.3392 56.8245C98.1886 57.4054 97.1201 58.097 95.8873 58.4566C95.175 58.9545 94.3257 59.2035 93.5586 59.5907C92.6271 60.0333 91.723 60.5589 90.9285 61.2228C89.5587 62.3293 88.4903 63.6294 87.9149 65.3168C87.9149 65.3998 87.8875 65.4828 87.8327 65.5381C87.4766 65.87 87.5862 66.2573 87.641 66.6169C87.9697 66.8382 88.2985 66.8382 88.6272 66.8382C89.5861 66.8382 90.545 66.8382 91.5039 66.8382C92.2984 66.8382 93.0928 66.8382 93.8873 66.8659C95.1202 66.9488 96.353 66.9488 97.5585 66.8659C98.4351 66.7829 99.2844 66.8382 100.161 66.6999C100.654 66.6169 101.147 66.6999 101.641 66.6722C102.216 66.6169 102.764 66.5616 103.312 66.4233C103.668 66.3403 104.051 66.285 104.408 66.1743C104.846 66.0637 105.284 65.8977 105.75 65.87C106.216 65.8147 106.627 65.6764 107.038 65.5104C107.312 65.3998 107.558 65.2615 107.832 65.1785C109.12 64.7912 110.216 64.072 111.092 63.0762C111.531 62.5782 111.668 61.9697 111.394 61.3334C111.284 61.1121 111.174 60.8909 111.065 60.6696C110.736 60.0887 110.243 59.6461 109.777 59.2035C109.12 58.5672 108.462 57.9034 107.805 57.2395C107.613 57.0458 107.449 56.8245 107.284 56.6032C107.12 56.4096 106.955 56.1883 106.791 55.967C107.038 55.7181 107.229 55.4968 107.449 55.3031C107.695 55.1095 107.969 54.9159 108.27 54.7499C109.394 54.1137 110.435 53.3668 111.448 52.5922C111.859 52.2603 112.27 51.9837 112.709 51.6517C113.284 51.2368 113.914 50.8772 114.544 50.5729C114.9 50.4069 115.284 50.3516 115.667 50.3793C116.133 50.4069 116.38 50.6836 116.298 51.1262C116.188 51.6794 116.298 52.288 116.024 52.8135C115.996 52.8689 116.024 52.9795 116.024 53.0625C116.024 54.2243 116.024 55.4138 116.024 56.5756C116.024 56.6862 116.024 56.8245 116.078 56.8799C116.215 57.0735 116.188 57.2948 116.243 57.5161C116.352 58.0417 116.435 58.5949 116.599 59.0928C116.818 59.7844 117.147 60.4206 117.476 61.0845C117.75 61.5824 118.078 62.0527 118.434 62.4953C118.845 63.0208 119.393 63.4634 119.777 64.0167C119.832 64.0997 119.914 64.1826 120.023 64.238C120.517 64.4593 120.928 64.8465 121.366 65.1231C121.969 65.5104 122.599 65.8977 123.284 66.1466C123.804 66.3403 124.325 66.5892 124.845 66.7829C125.475 67.0318 126.133 67.1425 126.79 67.2808C127.777 67.5021 128.79 67.5851 129.804 67.5851C130.516 67.5851 131.229 67.5851 131.941 67.5851C133.42 67.5851 134.872 67.6127 136.324 67.3085C136.927 67.1701 137.557 67.0872 138.132 66.8935C138.68 66.6999 139.256 66.5616 139.831 66.4509C140.187 66.3679 140.543 66.2573 140.872 66.119C141.173 65.9807 141.475 65.787 141.804 65.6764C142.845 65.3168 143.804 64.8189 144.735 64.2656C145.502 63.7954 146.242 63.2975 147.009 62.7995C147.228 62.6612 147.447 62.5506 147.612 62.3569C147.721 62.2463 147.749 62.025 147.803 61.859C147.803 61.8037 147.858 61.776 147.886 61.7207C148.105 61.7484 148.214 61.6101 148.297 61.3888C148.077 61.3888 147.858 61.3611 147.831 61.6654C147.666 61.7207 147.475 61.6931 147.283 61.8314C146.571 62.3016 145.776 62.5782 145.009 62.9378C144.214 63.2975 143.42 63.5741 142.598 63.8507C141.858 64.0997 141.064 64.238 140.324 64.4593C139.557 64.6806 138.763 64.6806 137.995 64.7912C136.927 64.9572 135.831 64.9848 134.735 65.0125C133.448 65.0402 132.16 65.0125 130.9 64.8742C130.516 64.8189 130.133 64.9018 129.749 64.8189C129.393 64.7359 129.037 64.5976 128.653 64.5146C127.64 64.2656 126.599 64.0443 125.585 63.6847C125.201 63.5464 124.873 63.2975 124.462 63.2975C124.325 63.2975 124.133 63.1868 124.051 63.0485C123.914 62.8272 123.722 62.7719 123.53 62.6612C123.01 62.3569 122.434 62.108 121.996 61.6377C121.914 61.5547 121.832 61.4718 121.749 61.4441C121.366 61.3058 121.065 61.0568 120.873 60.7249C120.654 60.3929 120.38 60.1163 120.16 59.7844C119.996 59.5354 119.914 59.2865 119.777 59.0375C119.284 58.014 119.037 56.9352 119.037 55.801C119.037 55.5797 119.037 55.3584 119.037 55.1372C119.037 55.0818 119.037 54.9988 119.037 54.9435C119.037 54.8329 119.065 54.7222 119.037 54.6392C118.9 54.4456 119.174 54.4456 119.174 54.335C119.174 54.169 119.119 54.0307 119.092 53.8647C119.092 53.8094 119.092 53.754 119.147 53.7264C119.393 53.5604 119.366 53.3115 119.448 53.0902C119.667 52.5369 119.75 51.9284 120.051 51.4304C120.16 51.2645 120.243 51.0708 120.243 50.9049C120.243 50.5453 120.517 50.324 120.571 50.0197C120.982 49.6877 121.147 49.1622 121.475 48.7749C121.585 48.6642 121.667 48.5259 121.777 48.3876C122.051 48.5536 122.27 48.6919 122.517 48.8302C123.229 49.2728 124.023 49.5494 124.845 49.7431C125.749 49.9367 126.681 49.8537 127.612 49.7431C127.859 49.7154 127.968 49.4941 127.968 49.2175C127.968 48.8302 127.886 48.4706 127.612 48.1663C127.338 47.862 127.119 47.5024 126.9 47.1705C126.818 47.0598 126.736 46.9492 126.681 46.8385C126.571 46.5896 126.736 46.1747 126.982 46.0087C127.229 45.815 127.53 45.8427 127.804 45.7321C128.297 45.5108 128.845 45.4554 129.311 45.1788C130.653 44.8469 131.996 44.5426 133.338 44.2106C133.585 44.1553 133.859 44.017 134.105 44.0447C134.763 44.1 135.393 43.9064 136.05 43.851C136.543 43.8234 137.037 43.7957 137.502 43.6851C138.489 43.4914 139.502 43.4084 140.516 43.3808C140.845 43.3808 141.173 43.2978 141.502 43.2701C142.187 43.2148 142.845 43.0765 143.53 43.0765C146.16 43.0765 148.762 43.0765 151.392 43.0765C151.557 43.0765 151.694 43.1042 151.885 43.1318C151.858 43.6021 151.968 44.017 152.05 44.4319C152.105 44.7086 152.187 44.9575 152.187 45.2341C152.187 45.4001 152.461 45.5384 152.242 45.7321C152.296 45.9257 152.351 46.147 152.379 46.3406C152.379 46.5343 152.433 46.7279 152.379 46.9215C152.296 47.1705 152.516 47.3365 152.516 47.5301C152.516 47.8067 152.543 48.0833 152.516 48.36C152.461 48.6919 152.707 48.9132 152.707 49.2175C152.735 49.7707 152.817 50.2963 152.927 50.8219C153.036 51.3751 152.927 51.956 153.146 52.5093C153.146 53.2285 153.31 53.8924 153.502 54.5839C153.776 55.6627 153.968 56.7969 154.515 57.7927C154.625 58.014 154.652 58.263 154.762 58.4566C154.926 58.7609 155.118 59.0652 155.283 59.3694C155.639 60.0057 156.022 60.6419 156.57 61.1398C156.68 61.2505 156.789 61.2505 156.926 61.1951C157.127 61.1951 157.228 61.0937 157.228 60.8909C157.228 60.8909 157.228 60.6696 157.228 60.5589C157.392 60.2823 157.392 60.1716 157.228 59.9227C157.228 59.812 157.228 59.7014 157.228 59.5907C157.118 57.4331 157.228 55.2755 157.283 53.1178C157.31 52.3156 157.392 51.5411 157.447 50.7389C157.447 50.4069 157.529 50.1027 157.556 49.7707C157.556 49.4664 157.666 49.1345 157.556 48.8025C157.556 48.7196 157.529 48.6089 157.556 48.5536C157.803 48.2216 157.721 47.862 157.693 47.5301C157.666 47.0598 157.885 46.6449 157.885 46.1747C157.885 45.981 158.022 45.7874 158.104 45.5938C158.159 45.4554 158.214 45.3448 158.241 45.2065C158.461 44.4319 158.68 43.6297 158.872 42.8275C158.899 42.6892 158.844 42.4403 158.926 42.385C159.173 42.219 159.145 41.97 159.173 41.7487C159.173 41.6657 159.228 41.5828 159.282 41.5274C159.611 41.1678 159.776 40.6976 159.967 40.255C160.022 40.089 160.104 39.8954 160.214 39.7571C160.351 39.6187 160.433 39.4804 160.515 39.3145C160.597 39.1485 160.762 39.0378 160.871 38.8995C161.529 37.9867 162.351 37.2398 163.145 36.4653C163.255 36.3546 163.392 36.2716 163.556 36.2163C163.995 36.078 164.378 35.7184 164.871 35.7184C165.2 35.4971 165.611 35.5801 165.995 35.5248C166.378 35.4418 166.816 35.4971 167.173 35.7184C167.227 35.7461 167.337 35.7461 167.419 35.7737C167.94 35.7737 168.433 35.7184 168.953 35.912C169.145 35.995 169.392 35.912 169.611 35.9674C169.775 35.995 169.967 36.1057 170.104 36.2163C170.296 36.3546 170.515 36.161 170.734 36.327C170.899 36.4653 171.172 36.4376 171.364 36.6036C171.583 36.7696 171.803 36.9355 172.049 37.0185C172.378 37.1292 172.597 37.3228 172.816 37.6547C172.816 38.0697 172.816 38.5399 172.816 39.0102C172.816 39.2315 172.761 39.4528 172.707 39.6464C172.515 40.2826 172.077 40.7252 171.529 41.0572C171.172 41.2785 170.762 41.4444 170.378 41.6381C169.857 41.887 169.282 42.1083 168.734 42.1913C167.775 42.3296 166.871 42.5233 165.94 42.7169C165.31 42.8552 164.652 42.9382 164.049 43.1872C163.447 43.4084 162.899 43.7127 162.57 44.266C162.707 44.5426 162.926 44.7362 163.228 44.8469C163.638 44.9852 164.049 45.1512 164.46 45.2895C164.734 45.3725 164.981 45.5384 165.31 45.5384C165.611 45.5384 165.94 45.6767 166.269 45.6767C168.049 45.7597 169.803 45.8704 171.583 45.8704C171.857 45.8704 172.131 45.898 172.405 45.9257C173.118 46.0087 173.803 45.981 174.515 46.147C174.871 46.23 175.255 46.2853 175.611 46.313C175.994 46.313 176.35 46.4236 176.734 46.5066C177.967 46.7832 179.008 47.3918 179.912 48.277C180.131 48.4983 180.295 48.7472 180.46 48.9962C180.679 49.3005 180.652 49.6047 180.46 49.909C180.104 50.4346 179.665 50.8772 179.2 51.2921C178.104 52.1773 176.926 52.9795 175.693 53.6987C174.323 54.5286 172.926 55.3308 171.529 56.1606C170.022 57.0458 168.734 58.1523 167.529 59.3971C166.707 60.2546 166.104 61.2505 165.584 62.3016C165.392 62.6612 165.282 63.0485 165.173 63.4358C165.063 63.8507 165.173 64.1273 165.584 64.2656C166.049 64.4316 166.488 64.7635 167.036 64.6806C167.118 64.6806 167.227 64.7359 167.337 64.7912C167.447 64.8189 167.556 64.8742 167.638 64.8742C168.351 64.8742 169.063 64.8742 169.775 64.8742C170.816 64.8742 171.857 64.6806 172.816 64.3486C174.022 63.906 175.145 63.2975 176.159 62.4953C176.981 61.8314 177.802 61.1122 178.57 60.3929C179.419 59.5907 180.213 58.7332 181.035 57.8757C181.994 56.8245 182.953 55.7734 183.912 54.7222C185.309 53.1455 186.843 51.7071 188.542 50.4623C188.706 50.3516 188.843 50.241 189.035 50.158C189.172 50.075 189.336 50.075 189.528 50.2686C189.638 50.8772 189.555 51.5411 189.473 52.1773C189.418 52.5646 189.418 52.9795 189.254 53.3668C189.117 53.7264 189.227 54.169 189.199 54.5839C189.199 54.8052 189.144 55.0265 189.117 55.2478C189.117 55.4414 189.062 55.6351 189.09 55.8287C189.227 56.6862 189.144 57.5714 189.391 58.4013C189.555 58.9545 189.638 59.5354 189.857 60.0333C190.021 60.4483 190.35 60.8079 190.624 61.1675C191.09 61.776 191.692 62.274 192.377 62.6059C192.624 62.7442 192.843 62.9102 193.172 62.9932C193.774 63.1315 194.35 63.1591 194.953 63.1315C195.994 63.0762 196.98 62.8272 197.939 62.4399C199.61 61.8037 201.199 60.9738 202.651 59.8674C203.473 59.2311 204.267 58.5672 205.034 57.8757C205.911 57.1012 206.706 56.216 207.39 55.2478C207.884 54.5286 208.432 53.7817 208.842 53.0072C209.226 52.2603 209.692 51.5411 209.911 50.7389C210.185 49.826 210.678 48.9685 210.651 47.9727C210.651 47.8897 210.733 47.8344 210.76 47.7514C210.815 47.1981 210.952 46.6726 210.925 46.1193C210.842 44.5979 210.349 43.2148 209.582 41.9424C209.116 41.1678 208.486 40.4763 208.021 39.6741H207.993ZM107.613 59.1481C108.49 60.0333 108.818 61.1398 108.846 62.3569C108.846 62.8272 108.654 63.1038 108.243 63.3251C107.449 63.7677 106.572 64.0167 105.668 64.072C104.216 64.1826 102.791 64.3209 101.339 64.4316C101.038 64.4316 100.736 64.4869 100.435 64.4869C98.2708 64.4869 96.1064 64.5146 93.9695 64.5422C93.5312 64.5422 93.0928 64.5146 92.7367 64.1826C92.5723 63.6294 92.7915 63.2698 93.1202 62.9378C93.6134 62.4399 94.1339 61.942 94.7092 61.5271C95.7503 60.7525 96.7914 59.9227 97.942 59.2865C98.5721 58.9268 99.257 58.6226 99.8871 58.2906C100.134 58.18 100.38 57.9863 100.599 57.9863C100.928 57.9863 101.147 57.765 101.449 57.7374C101.723 57.7374 101.969 57.5714 102.216 57.5161C102.271 57.5161 102.325 57.4884 102.38 57.4884C103.065 57.4884 103.75 57.4331 104.435 57.4608C104.791 57.4608 105.147 57.5437 105.476 57.6544C105.914 57.8204 106.38 57.9863 106.736 58.3459C107.01 58.6226 107.312 58.8715 107.558 59.1481H107.613ZM181.665 54.2796C181.528 54.7222 181.446 55.1648 181.227 55.5797C181.008 55.9947 180.679 56.3266 180.35 56.6586C179.282 57.848 177.994 58.7609 176.542 59.4524C176.213 59.5907 175.912 59.7567 175.583 59.9227C174.597 60.3653 173.611 60.8079 172.597 61.1951C171.857 61.4994 171.063 61.7207 170.214 61.5824C170.104 61.0292 170.159 60.4759 170.46 60.0333C171.063 59.1481 171.775 58.3736 172.679 57.765C173.501 57.1841 174.35 56.6586 175.255 56.1883C176.022 55.7734 176.789 55.3308 177.528 54.9159C178.186 54.5286 178.789 54.0583 179.309 53.4774C179.72 53.0072 180.241 52.6476 180.789 52.3156C180.871 52.2603 180.98 52.2326 181.063 52.205C181.474 52.3433 181.474 52.7306 181.583 53.0072C181.775 53.3944 181.83 53.837 181.665 54.2796Z" fill="black"/>
<path d="M404.233 45.8704C404.316 44.5149 404.425 43.1595 404.507 41.7764C404.589 40.7252 404.644 39.6464 404.726 38.5953C404.781 37.8484 404.836 37.1292 404.918 36.3823C405 35.2758 405.11 34.1417 405.192 33.0352C405.192 32.9522 405.165 32.8415 405.137 32.7309C404.316 32.8692 403.548 33.1182 402.727 33.2288C402.644 33.2288 402.59 33.2841 402.507 33.3395C401.959 33.6714 401.275 33.7821 400.864 34.3353C400.836 34.363 400.781 34.3906 400.727 34.3906C400.316 34.4183 400.069 34.7226 399.795 34.9715C399.275 35.4418 398.727 35.8567 398.179 36.2993C397.85 36.5759 397.466 36.7972 397.165 37.1015C396.836 37.4334 396.48 37.7101 396.151 38.0143C394.973 39.0378 393.658 39.7847 392.234 40.338C391.905 40.4763 391.576 40.5593 391.22 40.5869C390.946 40.5869 390.754 40.5316 390.563 40.338C389.987 39.7571 389.385 39.2038 388.809 38.6229C387.96 37.7931 387.028 37.0462 386.042 36.327C385.056 35.6078 384.042 34.9715 382.946 34.4183C382.344 34.114 381.714 33.865 381.138 33.5331C380.289 33.0352 379.44 32.5926 378.536 32.233C378.234 32.1223 377.933 32.0117 377.659 31.8457C376.974 31.4308 376.207 31.1542 375.467 30.8499C375.029 30.6839 374.536 30.6009 374.152 30.269C374.097 30.2137 374.015 30.186 373.933 30.1583C373.412 29.9647 372.865 29.8817 372.454 29.4668C371.549 29.0242 370.563 28.7199 369.659 28.222C369.522 28.139 369.33 28.1667 369.193 28.1113C369.029 28.056 368.974 27.8347 368.782 27.7517C368.426 27.5858 368.07 27.3921 367.659 27.3091C367.358 27.2538 367.221 26.8665 366.865 26.9495C366.837 26.9495 366.783 26.8389 366.728 26.7836C366.399 26.5623 366.043 26.3686 365.714 26.175C365.604 26.1197 365.413 26.175 365.331 26.092C365.248 26.009 365.194 25.8984 365.057 25.8154C364.7 25.6218 364.372 25.3728 364.015 25.1515C363.002 24.4876 361.988 23.7961 361.084 22.9939C360.098 22.1363 359.166 21.1958 358.372 20.1447C357.605 19.1488 356.865 18.1253 356.317 16.9635C356.071 16.438 355.906 15.8847 355.577 15.3868C355.468 15.2485 355.44 15.1102 355.44 14.9442C355.44 14.5569 355.44 14.1697 355.44 13.8101C355.44 13.6718 355.495 13.5611 355.55 13.4228C356.153 12.0397 356.92 10.7396 357.988 9.66076C358.536 9.10752 359.084 8.52662 359.687 8.00104C361.002 6.89456 363.385 5.59444 365.248 5.0412C366.235 4.76458 367.193 4.40498 368.235 4.43264C368.399 4.43264 368.563 4.37731 368.728 4.37731C369.55 4.32199 370.371 4.29433 371.193 4.26667C371.522 4.26667 371.851 4.21134 372.125 4.43264C372.18 4.4603 372.289 4.4603 372.371 4.43264C373.056 4.32199 373.714 4.54329 374.371 4.70926C375.029 4.87523 375.632 5.15185 376.262 5.40081C377.358 5.8434 378.371 6.39664 379.275 7.14352C379.494 7.33715 379.768 7.50312 380.015 7.6691L380.097 7.83507C380.097 7.83507 380.179 7.72442 380.179 7.6691C380.179 7.64143 380.125 7.58611 380.097 7.55845C380.015 7.06053 379.905 6.56261 379.522 6.14768C379.44 6.0647 379.385 5.92639 379.33 5.78808C378.782 4.73692 378.042 3.85173 377.248 2.96655C376.645 2.275 375.878 1.72176 375.056 1.30683C374.59 1.08553 374.18 0.781249 373.632 0.753587C372.782 0.145022 371.796 0.11736 370.837 0.034374C370.207 -0.0486121 369.522 0.034374 368.892 0.11736C368.125 0.228008 367.358 0.366318 366.591 0.532291C366.152 0.615277 365.687 0.698263 365.276 0.864235C364.317 1.22384 363.358 1.55579 362.454 2.02604C362.016 2.24734 361.577 2.46863 361.139 2.71759C360.838 2.88356 360.427 2.96655 360.235 3.29849C359.851 3.38148 359.632 3.68576 359.358 3.93472C359.221 4.04537 359.112 4.15602 358.947 4.21134C358.481 4.4603 358.043 4.76458 357.66 5.15185C357.523 5.29016 357.358 5.40081 357.221 5.56678C357.057 5.76042 356.865 5.95405 356.673 6.03704C356.317 6.20301 356.071 6.50729 355.824 6.78391C355.55 7.08819 355.276 7.39248 355.112 7.75208C354.92 8.13935 354.591 8.36065 354.345 8.66493C354.098 8.96921 354.016 9.32882 353.851 9.66076C353.66 10.0204 353.55 10.4353 353.304 10.7119C352.975 11.0715 352.975 11.4865 352.865 11.8737C352.865 11.9291 352.865 11.9844 352.81 12.012C352.591 12.178 352.619 12.427 352.619 12.6759C352.619 14.0037 352.619 15.3591 352.619 16.6869C352.619 16.8806 352.619 17.0742 352.756 17.2125C352.81 17.2678 352.81 17.4061 352.81 17.5168C352.81 17.6551 352.838 17.7657 352.947 17.8764C353.03 17.9594 353.084 18.0424 353.112 18.153C353.331 19.0659 353.742 19.8681 354.235 20.6149C354.701 21.3341 355.221 22.0534 355.714 22.7449C355.851 22.9385 356.071 23.0769 356.235 23.2152C356.427 23.3811 356.618 23.5194 356.783 23.6854C357.687 24.5706 358.701 25.2898 359.796 25.926C361.577 26.9772 363.385 27.973 365.276 28.8306C365.741 29.0518 366.18 29.2731 366.673 29.4391C367.056 29.5498 367.358 29.854 367.769 29.937C368.152 30.02 368.481 30.1583 368.81 30.352C369.166 30.5456 369.604 30.5179 369.933 30.7669C370.234 30.9605 370.591 31.0159 370.919 31.1265C371.248 31.2372 371.55 31.4308 371.878 31.5138C372.371 31.6521 372.865 31.7904 373.33 32.0393C373.823 32.316 374.371 32.4266 374.892 32.6203C375.358 32.7862 375.823 32.8692 376.262 33.0905C376.727 33.3118 377.275 33.3395 377.631 33.7267C377.659 33.7544 377.741 33.7821 377.768 33.7821C378.015 33.7821 378.207 33.948 378.426 34.0587C378.673 34.1693 378.947 34.197 379.193 34.3076C379.549 34.4736 379.851 34.6949 380.207 34.8332C380.535 34.9992 380.919 35.0822 381.248 35.2481C383.056 36.161 384.782 37.2121 386.344 38.4846C387.056 39.0655 387.768 39.6741 388.316 40.4486C388.563 40.8082 388.782 41.1955 388.974 41.5828C389.111 41.8317 389.083 42.053 388.891 42.2743C388.809 42.385 388.754 42.4956 388.7 42.6062C388.453 43.0488 388.152 43.4638 387.796 43.851C387.248 44.3766 386.7 44.9299 386.152 45.4554C385.987 45.6214 385.823 45.8704 385.604 45.9257C385.357 46.0087 385.302 46.313 385.001 46.2853C384.59 46.5619 384.152 46.8385 383.796 47.1428C383.604 47.3088 383.385 47.3641 383.22 47.5301C383.056 47.6961 382.837 47.8067 382.645 47.945C381.741 48.6366 380.727 49.1068 379.878 49.8814C379.768 49.992 379.604 50.1027 379.467 50.1303C379.275 50.158 379.138 50.2963 379.001 50.4069C378.563 50.7112 378.152 50.9878 377.686 51.2368C377.467 51.3475 377.303 51.4858 377.111 51.6241C376.919 51.7624 376.7 51.8454 376.508 51.956C376.344 52.0943 376.207 52.288 376.015 52.3709C375.796 52.4816 375.604 52.6199 375.44 52.7859C375.275 52.9519 375.056 53.0625 374.864 53.2008C374.536 53.4498 374.317 53.7817 373.96 54.003C373.632 54.2243 373.33 54.5286 373.166 54.9159C373.138 54.9712 373.056 55.0265 372.974 55.0542C372.782 55.1372 372.7 55.3031 372.591 55.4414C372.262 55.9117 371.906 56.3543 371.604 56.8245C371.385 57.1565 371.193 57.5161 371.002 57.848C370.782 58.2353 370.618 58.6779 370.399 59.0652C370.234 59.3694 370.18 59.729 370.015 60.0057C369.824 60.31 369.933 60.6972 369.714 60.9738C369.659 61.0568 369.714 61.2228 369.714 61.3334C370.536 61.4441 370.728 61.3888 371.604 61.2781C372.234 61.1951 372.837 61.1675 373.467 61.0292C374.125 60.8909 374.81 60.8632 375.467 60.6972C375.796 60.6142 376.097 60.5589 376.426 60.5589C376.536 60.5589 376.645 60.5589 376.727 60.5312C377.686 60.144 378.7 60.1163 379.659 59.7567C379.905 59.6737 380.179 59.6184 380.453 59.5631C380.782 59.5078 381.111 59.3971 381.44 59.2865C381.714 59.2035 382.015 59.1205 382.289 59.0652C382.398 59.0375 382.481 59.0098 382.59 58.9545C383.22 58.7332 383.823 58.4566 384.481 58.2906C385.193 58.097 385.823 57.6821 386.59 57.5714C386.946 57.2948 387.33 57.1288 387.741 57.0458C388.179 56.9628 388.48 56.6586 388.891 56.5203C389.357 56.3543 389.795 56.1606 390.234 55.9394C391.494 55.2478 392.782 54.6392 393.987 53.837C394.508 53.5051 395.028 53.1732 395.521 52.7859C396.014 52.371 396.261 51.873 396.288 51.2645C396.288 50.4346 396.288 49.6324 396.288 48.8025C396.288 48.0003 396.014 47.1981 395.987 46.3959C395.987 46.3406 395.96 46.2853 395.932 46.23C395.631 45.0958 395.193 44.0447 394.508 43.1042C394.343 42.8552 394.179 42.6062 394.069 42.3296C393.932 41.9977 394.014 41.7764 394.316 41.5551C394.891 41.1125 395.494 40.6976 396.069 40.2273C396.727 39.7017 397.384 39.1485 398.014 38.6229C398.261 38.4293 398.535 38.208 398.781 38.0143C398.946 37.876 399.192 37.9314 399.384 37.7931C399.823 37.5164 400.343 37.4611 400.864 37.4888C400.973 37.4888 401.055 37.5441 401.22 37.5994C401.22 43.5191 401.22 49.4111 401.22 55.3031C401.001 55.4414 401.001 55.4968 401.22 55.6351C401.22 55.967 401.466 56.299 401.22 56.6309C401.192 56.6862 401.22 56.7969 401.247 56.8522C401.521 57.3778 401.576 57.931 401.521 58.5119C401.521 58.6779 401.494 58.8715 401.576 58.9822C401.768 59.2588 401.576 59.5907 401.74 59.8397C401.932 60.0887 401.987 60.3653 402.069 60.6696C402.124 60.8909 402.151 61.1398 402.179 61.3888C402.398 61.4994 402.453 61.6654 402.453 61.8867C402.507 62.0527 402.59 62.2186 402.644 62.3846C402.836 62.5506 402.946 62.7719 402.973 63.0485C403.247 63.4634 403.521 63.906 403.822 64.3209C404.124 64.6252 404.48 64.9019 404.644 65.3168C404.699 65.3168 404.726 65.3168 404.781 65.3168C404.836 65.1785 404.946 65.1508 405.083 65.1231C405.165 64.4316 404.918 63.7677 404.754 63.1038C404.727 62.9655 404.617 62.8272 404.617 62.6336C404.644 62.2463 404.507 61.8867 404.453 61.5271C404.398 61.1398 404.425 60.7525 404.37 60.3929C404.261 59.7014 404.261 58.9822 404.151 58.2906C404.014 57.5714 404.014 56.8245 403.987 56.0777C403.959 54.9435 403.877 53.7817 403.905 52.6476C403.959 50.3516 404.069 48.0557 404.124 45.7597C404.124 45.7044 404.124 45.6491 404.124 45.5938L404.233 45.8704ZM394.151 45.981C394.316 47.2258 394.234 48.4429 393.768 49.6601C393.384 50.7112 392.699 51.4581 391.932 52.205C391.083 53.0348 390.069 53.6157 389.056 54.1966C388.782 54.3626 388.426 54.3626 388.179 54.5563C387.96 54.7222 387.659 54.8052 387.385 54.9159C387.083 55.0265 386.782 55.1372 386.481 55.2201C385.85 55.3584 385.275 55.6627 384.672 55.8564C382.645 56.4649 380.59 56.9905 378.536 57.4884C378.371 57.5161 378.207 57.5438 378.042 57.5438C377.549 57.4884 377.111 57.7927 376.618 57.7097C376.152 57.9587 375.659 57.848 375.166 57.8757C375.084 57.8757 375.001 57.848 374.892 57.8204C374.837 57.4884 374.892 57.2118 375.084 56.9905C376.344 55.6074 377.577 54.169 378.919 52.8412C381.22 50.5176 383.796 48.5536 386.59 46.8939C387.22 46.5066 387.905 46.23 388.535 45.8704C388.974 45.6214 389.467 45.5661 389.878 45.3448C390.289 45.1235 390.727 45.0405 391.165 44.9022C391.631 44.7362 392.097 44.5979 392.562 44.4873C392.836 44.4043 393.138 44.4043 393.439 44.3766C393.96 44.8469 394.124 45.4278 394.206 46.0087L394.151 45.981Z" fill="black"/>
<path d="M505.162 55.8564C505.107 54.9988 505.052 54.169 505.052 53.3391C505.052 51.3198 505.052 49.3005 505.107 47.2811C505.107 46.2853 505.134 45.3171 505.162 44.3213C505.162 43.7404 505.052 43.1872 504.586 42.8552C504.34 42.7999 504.175 42.7446 503.984 42.7169C503.764 42.6892 503.545 42.6339 503.326 42.6616C502.86 42.7446 502.395 42.8275 501.956 43.0488C501.463 43.2978 500.997 43.5744 500.504 43.7957C499.819 44.1 499.271 44.5979 498.696 45.0405C498.395 45.2895 498.039 45.4831 497.765 45.7874C497.491 46.064 497.189 46.313 496.86 46.5619C496.285 46.9769 495.71 47.3918 495.134 47.779C494.587 48.1663 494.039 48.4153 493.354 48.277C492.778 47.7514 492.23 47.1981 491.792 46.5343C491.409 45.9534 490.97 45.4001 490.587 44.7915C489.792 43.4914 488.806 42.3296 487.874 41.1402C487.162 40.2273 486.395 39.3421 485.655 38.4293C484.669 37.1845 483.464 36.161 482.286 35.1375C481.655 34.5843 480.971 34.114 480.286 33.5884C480.094 33.4501 479.875 33.2565 479.683 33.2288C479.354 33.2288 479.327 32.7309 478.971 32.8416C478.888 32.7309 478.806 32.5649 478.697 32.4819C478.477 32.316 478.231 32.2053 478.012 32.067C477.793 31.9287 477.573 31.7627 477.327 31.6244C477.08 31.4861 476.806 31.3201 476.532 31.2648C476.231 31.2095 476.176 30.9052 475.902 30.8222C475.546 30.7116 475.19 30.5733 474.861 30.4073C474.532 30.2413 474.121 30.269 473.82 29.9924C473.765 29.937 473.656 29.9924 473.574 29.937C473.327 29.8541 473.053 29.7987 472.806 29.6881C472.341 29.4944 471.82 29.4115 471.354 29.2455C470.861 29.0795 470.341 29.1625 469.848 28.9412C469.765 28.9135 469.628 28.9412 469.519 28.9412C469.327 28.9412 469.19 29.0242 469.108 29.1902C468.944 29.4944 468.779 29.7987 468.615 30.103C468.368 30.6009 468.067 31.0712 467.902 31.5968C467.766 32.0394 467.574 32.4266 467.355 32.8416C467.19 33.1458 467.026 33.4501 466.916 33.7544C466.807 34.114 466.67 34.446 466.45 34.7502C466.341 34.8885 466.231 35.0822 466.259 35.2481C466.259 35.5248 466.122 35.6907 465.985 35.912C465.848 36.161 465.766 36.4376 465.601 36.6866C465.3 37.1015 465.327 37.5994 465.108 38.042C464.533 39.1208 464.094 40.255 463.492 41.3338C462.889 42.4403 462.341 43.6021 461.684 44.7086C460.971 45.898 460.286 47.1152 459.41 48.194C459.3 48.1663 459.19 48.1387 459.081 48.111C458.944 46.8385 458.999 45.5661 459.026 44.266C459.026 43.934 458.971 43.5744 459.081 43.2978C459.245 42.9105 459.218 42.4956 459.245 42.1083C459.3 41.6934 459.327 41.3061 459.3 40.8912C459.3 40.2273 459.218 39.5911 459.19 38.9272C459.19 38.1803 458.889 37.5441 458.341 37.0462C457.985 36.7142 457.574 36.4376 457.054 36.4929C456.834 36.4929 456.615 36.4929 456.396 36.5206C456.341 36.5206 456.314 36.5206 456.259 36.5206C456.286 36.5759 456.341 36.6036 456.369 36.6589C456.259 37.3505 456.588 37.9867 456.533 38.6782C456.834 39.4251 456.752 40.172 456.725 40.9465C456.697 42.136 456.615 43.3531 456.56 44.5426C456.396 44.6532 456.396 44.7362 456.56 44.8745C456.506 45.4831 456.423 46.064 456.396 46.6726C456.314 47.6407 456.286 48.6366 456.204 49.6047C456.149 50.324 456.095 51.0155 456.04 51.7347C455.903 53.0625 455.739 54.3903 455.903 55.7181C455.903 55.9117 455.903 56.1053 455.903 56.299C455.903 56.4096 455.903 56.5203 455.903 56.6309C456.04 57.2395 456.232 57.848 456.341 58.4566C456.423 58.9545 456.67 59.3694 456.889 59.7844C457.026 60.0333 457.245 60.2823 457.547 60.31C458.122 59.6461 458.423 59.0375 458.697 58.3459C458.862 57.931 458.862 57.4608 459.218 57.1288C459.273 56.7416 459.601 56.4649 459.629 56.1053C459.656 55.6627 460.012 55.3584 460.04 54.9159C460.286 54.6946 460.423 54.3626 460.451 54.0583C460.506 53.7264 460.807 53.5051 460.834 53.1731C460.834 53.0072 460.916 52.8689 460.971 52.7029C460.999 52.5922 461.026 52.5093 461.081 52.3986C461.19 52.1497 461.327 51.9007 461.41 51.6517C461.519 51.2645 461.547 50.8772 461.793 50.5453C462.04 50.2133 461.821 49.7154 462.231 49.4664C462.286 48.8579 462.642 48.3876 462.889 47.8344C463.026 47.5301 463.19 47.2258 463.245 46.9215C463.3 46.5619 463.574 46.313 463.656 45.981C463.656 45.9257 463.711 45.898 463.711 45.8427C463.738 45.6491 463.711 45.4001 463.848 45.3171C464.012 45.1788 464.094 45.0128 464.177 44.8745C464.396 44.4319 464.615 43.9894 464.807 43.5468C465.875 41.3061 467.108 39.1485 468.67 37.1845C468.779 37.0462 468.861 36.9079 468.971 36.7972C469.848 35.912 470.697 35.0545 471.574 34.197C471.985 33.8097 472.45 33.4778 472.971 33.2565C473.327 33.0905 473.628 33.0628 473.984 33.2565C474.176 33.3671 474.368 33.4501 474.56 33.5608C475.08 33.865 475.601 34.1693 476.094 34.4736C476.697 34.8332 477.299 35.2205 477.93 35.5524C478.532 35.8844 479.08 36.327 479.683 36.6589C481.299 37.5994 482.724 38.7889 484.121 40.006C484.998 40.7529 485.765 41.6104 486.505 42.4679C487.464 43.5468 488.285 44.7362 488.916 46.064C489.107 46.4789 489.299 46.8939 489.546 47.3088C489.792 47.7237 489.82 48.2493 490.121 48.6366C490.121 49.0238 490.505 49.3834 490.285 49.826C489.326 50.241 488.258 50.4899 487.244 50.7942C485.957 51.1538 484.669 51.4581 483.381 51.8177C481.683 52.288 479.957 52.7306 478.231 52.9795C477.82 53.0348 477.409 53.0072 477.025 53.1178C476.45 53.2838 475.875 53.3115 475.3 53.4498C474.697 53.5881 474.121 53.5604 473.519 53.6157C473.382 53.6157 473.245 53.6157 473.108 53.6157C472.806 53.6434 472.505 53.6711 472.286 53.7817C472.231 53.8647 472.204 53.8647 472.204 53.8924C472.204 53.9753 472.149 54.0583 472.149 54.1413C472.149 55.1925 472.56 56.05 473.382 56.6862C473.847 57.0458 474.395 57.3225 474.889 57.6544C475.793 57.8757 476.669 58.097 477.601 58.1247C479.299 58.18 480.998 58.0693 482.669 57.9587C483.518 57.9034 484.34 57.7927 485.19 57.7097C485.847 57.6544 486.477 57.5714 487.135 57.5438C487.957 57.5161 488.779 57.5438 489.6 57.5438C489.792 57.5438 489.984 57.5438 490.176 57.5991C490.724 57.7374 491.272 57.6821 491.765 57.6821C492.066 57.5437 492.203 57.2948 492.34 57.0458C492.724 56.4096 493.107 55.801 493.436 55.1372C494.176 53.6434 495.08 52.2603 496.121 50.9325C496.559 50.3793 497.052 49.8814 497.6 49.4111C498.34 48.7472 499.217 48.3046 500.038 47.7514C500.093 47.6961 500.175 47.6684 500.258 47.6684C500.614 47.6131 500.943 47.5024 501.271 47.3918C501.463 47.3365 501.71 47.3088 501.901 47.3088C502.093 47.3088 502.258 47.4748 502.285 47.6684C502.285 47.8344 502.285 48.0003 502.285 48.1663C502.285 49.5494 502.285 50.9602 502.285 52.3433C502.285 52.6752 502.23 53.0072 502.203 53.3115C502.121 54.4456 502.066 55.6074 502.148 56.7415C502.23 57.5714 502.449 58.3736 502.888 59.1205C503.299 59.8397 503.874 60.31 504.723 60.4206C505.052 60.4483 505.381 60.4759 505.709 60.4759C505.846 60.4759 506.093 60.2546 506.011 60.1993C505.792 59.9503 505.901 59.6184 505.819 59.3418C505.436 58.097 505.244 57.1012 505.134 55.8287L505.162 55.8564Z" fill="black"/>
<path d="M550.996 46.2853C550.859 45.1788 550.448 44.1553 550.092 43.1318C549.544 41.5828 548.557 40.3103 547.407 39.1762C546.503 38.291 545.544 37.5164 544.475 36.8249C543.571 36.244 542.558 35.6631 541.763 35.4418C541.517 35.3588 541.352 35.2481 541.215 35.0822C540.448 34.9439 539.791 34.5289 539.051 34.3353C538.667 34.2246 538.284 34.0863 537.9 33.9757C537.544 33.8927 537.16 33.8374 536.777 33.7544C536.393 33.6991 536.01 33.5331 535.572 33.5884C535.489 33.5884 535.407 33.5884 535.325 33.5884C534.969 33.3948 534.585 33.4501 534.202 33.4501C533.215 33.4501 532.229 33.4778 531.243 33.4501C530.668 33.4501 530.147 33.6437 529.572 33.6991C529.325 33.9204 528.969 33.6714 528.75 33.948C528.202 34.0034 527.764 34.28 527.243 34.4459C526.777 34.5843 525.654 35.2758 525.188 35.5524C524.969 35.6907 524.75 35.8567 524.558 36.0227C524.366 36.1887 524.257 36.3823 524.038 36.5206C523.818 36.6589 523.627 36.8802 523.435 37.0738C523.216 37.3228 523.079 37.6547 522.832 37.9037C522.558 38.1803 522.366 38.5123 522.147 38.8165C522.01 39.0102 521.873 39.2315 521.764 39.4528C520.914 41.4168 520.23 43.4085 520.449 45.6214C520.449 45.815 520.449 46.0087 520.449 46.2023C520.449 46.3959 520.641 46.5896 520.449 46.7832C520.504 46.9769 520.586 47.1981 520.64 47.3918C520.75 47.8344 520.942 48.2493 520.969 48.7196C521.216 48.9409 521.188 49.2728 521.298 49.5218C521.408 49.7984 521.599 50.0473 521.736 50.2963C522.038 50.7665 522.284 51.2921 522.613 51.7347C523.49 52.9519 524.586 53.92 525.818 54.7222C525.873 54.7775 525.955 54.8052 526.038 54.8052C526.64 54.9712 527.243 55.1095 527.846 55.2478C528.01 55.2755 528.229 55.3584 528.421 55.1925C528.394 55.0818 528.366 54.9435 528.311 54.8605C528.229 54.7222 528.092 54.6116 527.955 54.5286C526.832 53.6434 525.901 52.5922 524.997 51.4858C524.723 51.1538 524.531 50.7666 524.229 50.4346C523.955 50.1303 523.791 49.6877 523.681 49.3005C523.545 48.6642 523.298 48.0557 523.161 47.4194V47.2535C523.161 46.7279 523.161 46.2023 523.161 45.7044C523.106 44.6256 523.462 43.6574 524.038 42.7722C524.613 41.8317 525.983 40.4209 527.188 39.5634C527.544 39.3145 527.873 39.0102 528.284 38.8165C528.722 38.6229 529.161 38.4569 529.544 38.1803C529.873 37.9314 530.229 37.8207 530.64 37.7377C530.832 37.7101 530.996 37.6271 531.188 37.5994C531.489 37.5164 531.818 37.4334 532.12 37.3505C532.421 37.2675 532.722 37.1292 533.051 37.1292C533.38 37.1292 533.681 37.0185 533.983 36.9632C534.257 36.9079 534.558 36.9909 534.859 36.8802C535.161 36.7696 535.489 36.7142 535.791 36.6866C536.503 36.6589 537.215 36.6866 537.928 36.6866C538.037 36.6866 538.174 36.6866 538.229 36.7696C538.53 37.0185 538.886 36.9632 539.243 36.9632C539.654 36.9632 540.065 36.9355 540.448 37.1015C540.612 37.1845 540.777 37.2122 540.969 37.2398C541.215 37.2675 541.434 37.3781 541.654 37.4611C541.763 37.4888 541.845 37.5994 541.927 37.5994C542.229 37.5994 542.421 37.876 542.667 37.9037C542.969 37.959 543.243 38.0973 543.489 38.2356C544.01 38.5676 544.53 38.9272 545.051 39.2591C545.708 39.7017 546.201 40.255 546.557 40.9465C546.886 41.6104 547.407 42.1637 547.516 42.9105C547.79 43.2701 547.872 43.6851 547.955 44.1277C548.064 44.5703 548.092 45.0405 548.092 45.4831C548.092 46.2023 548.092 46.8939 548.092 47.6131C548.092 48.028 548.064 48.4153 547.955 48.8302C547.763 49.5494 547.407 50.1856 547.078 50.8495C546.475 52.0667 545.571 53.0625 544.475 53.837C544.147 54.086 543.818 54.335 543.489 54.5563C543.16 54.7499 542.832 54.9435 542.503 55.1095C542.147 55.3031 541.791 55.5244 541.434 55.6904C541.106 55.8564 540.777 56.0777 540.366 56.0777C540.065 56.4096 539.626 56.4373 539.27 56.5203C538.886 56.6309 538.558 56.8799 538.147 56.9352C537.517 57.0182 536.859 57.2118 536.256 57.4054C535.626 57.5991 534.969 57.5437 534.339 57.6821C533.572 57.848 532.777 57.8757 531.983 57.9034C530.914 57.931 529.846 57.9034 528.777 57.9034C528.311 57.9034 527.846 57.848 527.38 57.7927C526.942 57.7374 526.503 57.6544 526.092 57.6267C525.627 57.5991 525.188 57.4608 524.723 57.5714C524.668 57.5714 524.586 57.5437 524.503 57.5161C524.339 57.4608 524.202 57.3778 524.065 57.3501C523.216 57.2395 522.421 57.0182 521.599 56.7969C521.435 56.7415 521.243 56.7969 521.134 56.7139C520.641 56.4096 520.147 56.133 519.709 55.7457C519.325 55.4138 519.024 55.0265 518.915 54.4733C518.778 53.8094 518.75 53.1731 518.778 52.5369C518.832 51.2091 518.997 49.8814 518.942 48.5259C518.887 47.5854 518.641 46.7002 517.983 45.981C517.709 45.981 517.435 45.9257 517.161 45.981C516.86 46.0363 516.586 46.1747 516.504 46.5066C516.476 46.6172 516.421 46.7002 516.394 46.8109C516.093 48.028 515.901 49.2728 515.874 50.5176C515.709 50.8219 515.709 51.0432 515.874 51.3198C515.928 51.956 515.928 52.5922 516.065 53.1731C516.175 53.7264 516.367 54.2796 516.558 54.8052C516.75 55.3308 517.079 55.8287 517.38 56.299C517.846 57.0735 518.449 57.7374 519.188 58.2906C520.038 58.9269 520.887 59.4248 521.956 59.8397C523.545 60.4483 524.257 60.6142 525.873 60.8909C526.229 60.9462 526.64 60.8909 526.969 61.1398C527.024 61.1675 527.133 61.1951 527.216 61.1398C527.544 61.0015 527.846 61.1122 528.174 61.1122C528.887 61.1122 529.599 61.1675 530.284 61.0292C530.476 61.0015 530.668 61.0292 530.859 60.9738C531.079 60.9462 531.27 60.8632 531.489 60.8355C532.75 60.8355 533.983 60.5589 535.188 60.2823C535.928 60.1163 536.695 59.9503 537.38 59.6461C537.9 59.4248 538.53 59.3694 538.996 59.0098C539.352 59.0098 539.681 58.8439 540.01 58.7056C540.311 58.5949 540.64 58.5119 540.886 58.3459C541.188 58.1247 541.544 58.1523 541.873 57.9863C542.749 57.4884 543.653 57.0458 544.503 56.5203C545.982 55.6074 547.188 54.3903 548.338 53.0902C548.804 52.5922 549.215 52.039 549.571 51.4581C550.174 50.4899 550.448 49.4388 550.776 48.3876C550.968 47.6961 551.05 47.0045 550.968 46.2853H550.996Z" fill="black"/>
<path d="M276.621 38.0973C276.703 37.6547 276.402 37.2675 276.429 36.8249C276.429 36.6589 276.32 36.4653 276.292 36.2993C276.265 36.078 276.292 35.8567 276.292 35.6354C276.292 35.4971 276.183 35.3588 276.101 35.1928C276.046 35.0822 275.964 34.9715 275.936 34.8332C275.909 34.5843 275.717 34.4459 275.58 34.3076C275.47 34.4183 275.361 34.5289 275.279 34.6119C275.224 34.6949 275.142 34.8056 275.142 34.8885C275.142 35.3311 274.868 35.7184 274.95 36.161C274.95 36.2716 274.868 36.41 274.84 36.5483C274.703 37.1015 274.621 37.6547 274.32 38.1527C274.183 38.9272 273.744 39.5634 273.361 40.1996C272.758 41.1955 271.964 41.9977 271.032 42.7169C270.347 43.2425 269.635 43.7681 268.868 44.183C267.936 44.7086 266.923 45.1235 265.909 45.4831C265.087 45.7597 264.238 45.9534 263.389 46.2023C262.074 46.5619 260.731 46.8109 259.389 47.0322C258.676 47.1428 257.992 47.4194 257.252 47.3641C257.197 47.3641 257.142 47.3918 257.115 47.4194C256.594 47.5854 256.074 47.6961 255.526 47.6961C255.416 47.6961 255.307 47.6961 255.197 47.6961C253.919 47.9911 252.795 48.1479 251.827 48.1663C251.827 48.1663 251.636 48.1663 251.663 48.0003C251.608 47.4194 251.553 46.8662 251.526 46.2853C251.526 45.7321 251.252 45.1788 251.334 44.5979C251.334 44.5426 251.279 44.4596 251.252 44.3766C251.225 44.2383 251.17 44.1 251.17 43.9893C251.252 43.0765 251.06 42.1913 250.841 41.3338C250.677 40.6699 250.485 39.9784 250.238 39.3421C249.964 38.6229 249.608 37.959 249.033 37.4334C248.732 37.1568 248.321 36.9632 247.91 36.9079C247.773 37.2675 247.773 37.6547 247.745 38.0143C247.745 39.0655 247.718 40.1443 247.691 41.1955C247.691 41.6657 247.691 42.136 247.663 42.5786C247.663 43.1872 247.581 43.7681 247.581 44.3766C247.581 45.5108 247.581 46.6726 247.581 47.8067C247.581 48.8855 247.581 49.992 247.554 51.0708C247.471 51.0708 247.389 51.0985 247.088 51.1538C247.362 51.2091 247.444 51.2368 247.554 51.2368C247.636 52.2326 247.608 53.2561 247.718 54.252C247.855 55.4691 248.101 56.6586 248.485 57.848C248.677 58.4289 248.951 58.9269 249.28 59.4248C249.416 59.5907 249.553 59.7567 249.718 59.895C250.047 60.1993 250.348 60.144 250.622 59.7844C251.033 59.2311 251.307 58.5949 251.499 57.9587C251.8 56.9628 251.964 55.9117 252.321 54.9159C252.375 54.7499 252.321 54.5009 252.43 54.3626C252.677 53.9753 252.731 53.5604 252.841 53.1455C252.923 52.8135 253.252 52.5646 253.197 52.1773C253.197 52.1497 253.252 52.0943 253.279 52.039C253.444 51.79 253.608 51.5411 253.773 51.2921C253.855 51.1815 253.91 51.0708 253.992 50.9602C254.54 50.158 255.279 49.7984 256.238 49.9644C256.731 50.0473 257.197 50.075 257.69 50.1303C258.649 50.2686 259.581 50.241 260.539 50.1303C260.868 50.075 261.17 49.992 261.471 49.9644C262.649 49.8537 263.745 49.4664 264.841 49.0238C266.567 48.3046 268.238 47.4471 269.909 46.5896C269.991 46.5619 270.046 46.5343 270.128 46.5066C270.347 46.4513 270.594 46.396 270.813 46.313C271.471 46.0087 272.183 45.8427 272.895 45.7597C273.169 45.7321 273.498 45.6491 273.772 45.815C273.881 46.1193 273.881 46.4513 273.772 46.7279C273.662 47.0045 273.662 47.2535 273.662 47.5301C273.662 47.8344 273.662 48.1387 273.607 48.4153C273.443 49.6324 273.361 50.8495 273.361 52.0943C273.361 54.3626 273.361 56.6309 273.361 58.8992C273.361 59.2588 273.388 59.6184 273.416 59.9503C273.471 60.9185 273.471 61.9144 273.635 62.8825C273.553 63.4911 273.881 64.0443 273.827 64.6529C274.073 65.4274 274.183 66.2296 274.457 66.9765C274.594 67.3638 274.786 67.751 275.196 68C275.279 67.8894 275.416 67.8064 275.416 67.7234C275.388 67.3361 275.58 67.0042 275.607 66.6169C275.662 65.9253 275.717 65.2615 275.772 64.5699C275.799 64.2656 275.909 63.989 275.909 63.6847C275.936 63.3528 275.909 63.0208 275.909 62.7165C275.909 62.7165 275.909 62.6612 275.909 62.6336C276.073 62.4123 276.018 62.1633 276.073 61.942C276.128 61.6931 276.101 61.4718 276.073 61.2228C276.073 61.0845 276.073 60.9185 276.101 60.8355C276.292 60.5589 276.238 60.2546 276.238 59.978C276.238 59.7844 276.183 59.5631 276.238 59.4248C276.402 59.0928 276.347 58.7332 276.402 58.4013C276.594 57.5437 276.457 56.6586 276.676 55.801C276.813 55.2478 276.785 54.6669 276.84 54.086C276.895 52.7582 277.005 51.4028 277.005 50.075C277.005 46.6726 277.196 43.2425 276.868 39.84C276.813 39.2591 276.785 38.6506 276.594 38.0697L276.621 38.0973Z" fill="black"/>
<path d="M236.513 47.8067C235.225 46.7832 233.883 45.8704 232.458 45.0405C230.842 44.0723 229.335 42.9659 227.993 41.6104C226.951 40.5316 226.431 39.7847 225.828 38.3186C225.801 38.2356 225.746 38.1803 225.719 38.0973C225.472 37.6824 225.335 37.2122 225.445 36.7142C225.609 36.6866 225.828 36.8249 225.91 36.5483C226.541 36.5483 227.171 36.6036 227.801 36.5483C228.239 36.4929 228.513 36.8802 228.951 36.8525C229.088 37.1292 229.445 37.1568 229.609 37.4334C229.91 37.9867 230.212 38.5123 230.513 39.0378C230.787 39.5358 231.034 40.0337 231.335 40.5316C231.581 40.9465 231.855 41.3338 232.294 41.6104C232.677 41.8594 233.033 41.8594 233.417 41.7487C233.472 41.6381 233.499 41.6104 233.499 41.5551C233.499 41.1125 233.581 40.6422 233.225 40.2273C233.116 40.1167 233.116 39.84 233.17 39.6741C233.225 39.4251 232.951 39.2591 233.006 39.0655C233.116 38.7612 232.924 38.5399 232.842 38.2633C232.76 37.9314 232.623 37.6271 232.513 37.3228C232.184 36.5206 231.801 35.7737 231.225 35.1375C230.951 34.8609 230.677 34.6396 230.403 34.4183C230.102 34.1693 229.801 33.9757 229.472 33.7821C229.308 33.6991 229.116 33.6991 228.951 33.5884C228.65 33.3948 228.349 33.1182 227.938 33.2288C227.883 33.2288 227.801 33.1458 227.746 33.0905C227.636 32.9522 227.527 33.0075 227.39 33.0352C227.28 33.0628 227.171 33.0352 227.116 32.9522C226.979 32.6756 226.787 32.9522 226.623 32.8969C226.55 32.694 226.422 32.6295 226.239 32.7032C225.664 32.5096 225.116 32.6756 224.568 32.8416C224.075 33.0075 223.938 33.2288 223.609 33.8374C223.308 34.4183 222.952 34.9715 222.595 35.5524C222.321 35.5524 222.294 35.8567 222.212 36.0227C221.911 36.5483 221.691 37.1292 221.637 37.7377C221.637 38.042 221.527 38.3186 221.527 38.6229C221.527 38.8995 221.664 39.1485 221.664 39.4251C221.664 39.7847 221.911 39.9507 222.048 40.1997C222.513 41.0019 223.143 41.6934 223.856 42.302C225.034 43.3255 226.376 44.1277 227.773 44.8192C229.034 45.4278 230.239 46.0917 231.444 46.8109C232.677 47.5578 233.883 48.36 234.869 49.4388C235.198 49.7984 235.499 50.1856 235.801 50.6006C235.992 50.8772 236.184 51.2091 236.321 51.5134C236.513 51.956 236.705 52.3986 236.842 52.8689C236.951 53.2008 237.006 53.5604 237.088 53.8924C237.143 54.1966 237.143 54.5286 237.225 54.8605C237.389 55.6904 237.225 56.4926 236.732 57.1841C236.622 57.3501 236.513 57.5161 236.403 57.6544C235.773 58.4566 235.061 59.1758 234.129 59.6184C233.828 59.7567 233.472 59.8674 233.17 60.0057C232.705 60.1993 232.212 60.3653 231.691 60.3376C231.581 60.3376 231.444 60.31 231.362 60.3376C230.897 60.5589 230.403 60.4759 229.91 60.5036C229.335 60.5312 228.787 60.3929 228.212 60.5036C228.13 60.5036 228.047 60.5036 227.993 60.4483C227.828 60.31 227.636 60.3653 227.445 60.31C227.225 60.2546 227.034 60.2546 226.815 60.31C226.486 60.4206 226.267 60.144 225.965 60.1163C225.253 60.0887 224.541 60.0333 223.856 60.0057C223.691 59.8766 223.527 59.8766 223.363 60.0057C223.143 60.0057 222.924 60.0057 222.705 60.0057C222.595 59.8397 222.486 59.8397 222.376 60.0057C222.294 60.0057 222.212 60.0057 222.13 60.0057C221.938 60.061 221.719 60.144 221.527 60.1716C221.308 60.1993 221.089 60.1716 220.897 60.1716C220.732 60.2823 220.568 60.3653 220.404 60.4483C219.719 60.7802 219.171 61.2781 218.705 61.859C218.459 62.1633 218.212 62.4953 218.02 62.8549C217.911 63.0762 217.883 63.3804 217.828 63.6294C217.801 63.823 217.746 64.0167 217.911 64.1826C218.623 64.4316 219.39 64.3763 220.157 64.3486C221.143 64.2933 222.102 64.1826 223.089 64.1273C224.102 64.0997 225.116 64.072 226.102 63.9337C227.034 63.823 227.993 63.7677 228.924 63.6294C229.636 63.5187 230.321 63.4081 231.006 63.2421C232.705 62.7995 234.376 62.2186 235.883 61.3058C236.431 60.9738 237.006 60.6419 237.499 60.1716C237.746 59.9503 237.965 59.7014 238.184 59.4524C238.403 59.1758 238.622 58.8992 238.814 58.5949C238.978 58.3183 239.198 58.014 239.252 57.7097C239.307 57.3501 239.554 57.1012 239.663 56.7415C239.8 56.1883 239.965 55.6351 239.992 55.0818C240.321 54.252 240.184 53.4221 239.965 52.6199C239.389 50.6282 238.211 49.0515 236.622 47.779L236.513 47.8067Z" fill="black"/>
<path d="M445.711 42.6339C445.785 42.4679 445.73 42.3481 445.547 42.2743C445.547 42.2743 445.684 41.9424 445.629 41.887C445.355 41.6104 445.328 41.3338 445.465 41.0018C445.465 40.9742 445.465 40.8912 445.41 40.8635C445.136 40.7252 445.246 40.5039 445.218 40.2826C445.218 39.9784 445.164 39.7017 445.136 39.3975C444.862 39.2591 444.917 39.0102 444.89 38.7612C444.89 38.4846 444.78 38.2356 444.451 38.0973C444.342 38.208 444.232 38.3463 444.15 38.4569C444.095 38.5123 444.068 38.5953 444.04 38.6782C443.876 39.3421 443.575 40.006 443.465 40.6976C443.41 41.0295 443.246 41.3615 443.218 41.7211C443.136 43.0765 443.109 44.4596 443.054 45.815C442.999 46.7832 442.999 47.7791 442.89 48.7472C442.835 49.2175 442.725 49.6877 442.725 50.1856C442.725 50.3516 442.643 50.4899 442.616 50.6559C442.561 50.9049 442.424 51.1538 442.369 51.4028C442.15 52.2326 441.547 52.8135 440.753 53.0902C440.177 53.2838 439.684 53.5881 439.164 53.837C438.808 54.003 438.424 54.2243 438.068 54.4456C437.684 54.6669 437.273 54.8329 436.917 55.0542C436.561 55.2755 436.15 55.4138 435.794 55.5797C435.301 55.4968 434.999 56.05 434.506 55.9117C434.232 56.133 433.876 56.2713 433.52 56.2436C433.109 56.1883 432.808 56.4096 432.452 56.5479C432.397 56.5479 432.342 56.5479 432.287 56.5479C431.767 56.4926 431.274 56.7139 430.753 56.6862C430.232 56.6862 429.712 56.6862 429.191 56.6862C429.137 56.6862 429.082 56.6862 429.027 56.6862C428.644 56.7692 428.287 56.6862 427.959 56.4373C427.027 56.1606 426.37 55.5244 425.849 54.7222C425.657 54.4179 425.493 54.1137 425.301 53.8094C425.109 53.4774 424.972 53.1455 424.972 52.7582C424.972 52.4816 424.972 52.205 424.918 51.9284C424.753 51.1815 425.027 50.4623 425 49.7154C425.301 48.8025 425.466 47.8344 425.712 46.9215C425.904 46.2023 426.123 45.4831 426.26 44.7362C426.397 43.851 426.589 42.9935 426.726 42.1083C426.89 40.9465 426.698 39.84 425.986 38.8442C425.822 38.5953 425.63 38.4293 425.383 38.3186C425.164 38.208 424.918 38.2633 424.698 38.374C424.616 38.8165 424.37 39.2315 424.342 39.6741C424.068 39.8124 424.233 40.1443 424.068 40.338C423.904 40.5039 424.068 40.7252 423.959 40.9465C423.849 41.1125 423.822 41.3891 423.712 41.5828C423.794 41.9424 423.438 42.219 423.548 42.5786C423.246 42.7999 423.411 43.1872 423.246 43.4638C423.082 43.7127 423.246 44.1 423.055 44.3766C423.082 44.6809 422.972 44.9575 422.89 45.2341C422.835 45.5384 422.918 45.8704 422.753 46.1747C422.644 46.3683 422.753 46.6449 422.726 46.8939C422.699 47.1428 422.589 47.4194 422.589 47.6684C422.589 48.0003 422.425 48.3323 422.589 48.6366C422.589 49.6601 422.589 50.6559 422.589 51.6794C422.452 51.6794 422.425 51.79 422.425 51.9007C422.425 52.0943 422.534 52.1773 422.698 52.2326C422.698 52.3986 422.808 52.5369 422.671 52.7029C422.616 52.7859 422.589 52.9519 422.644 53.0072C422.808 53.2285 422.781 53.4774 422.781 53.6987C422.781 53.7817 422.781 53.8647 422.835 53.92C423.137 54.2796 423.109 54.7499 423.246 55.1372C423.274 55.2478 423.274 55.3584 423.329 55.4414C423.603 55.967 423.877 56.4926 424.151 57.0182C424.205 57.1288 424.26 57.2671 424.37 57.3501C424.835 57.7097 425.246 58.1247 425.63 58.5949C425.685 58.6779 425.794 58.7332 425.904 58.7609C426.233 58.8992 426.616 59.0098 426.918 59.2035C427.164 59.3418 427.411 59.3694 427.685 59.3694C428.945 59.3694 430.205 59.3418 431.465 59.3694C432.671 59.3694 433.849 59.2311 435.027 58.9269C435.383 58.8439 435.739 58.6502 436.095 58.5949C436.397 58.5396 436.643 58.4013 436.917 58.3183C437.219 58.2076 437.547 58.1523 437.849 58.014C438.753 57.5438 439.629 57.1012 440.451 56.4649C440.972 56.05 441.492 55.6074 442.013 55.1648C442.533 54.7222 442.78 54.0583 443.273 53.6157C443.355 53.2838 443.629 53.1178 443.821 52.8412C444.122 52.3986 444.287 51.9007 444.533 51.4581C444.725 51.0985 445.027 50.7665 445.027 50.324C445.218 50.158 445.027 49.826 445.355 49.7154C445.492 49.2728 445.602 48.8302 445.739 48.3876C445.492 47.9727 445.958 47.6131 445.821 47.2258C446.068 46.9215 445.985 46.5619 446.04 46.2023C446.095 45.815 446.122 45.4278 446.095 45.0682C446.04 44.2936 445.958 43.5468 445.903 42.7722C445.903 42.6892 445.848 42.6339 445.794 42.5509L445.711 42.6339Z" fill="black"/>
<path d="M426.205 30.4626C426.397 30.4626 426.616 30.6286 426.808 30.6286C427.328 30.5733 427.794 30.8775 428.315 30.8222C428.479 30.8222 428.643 30.8499 428.78 30.9605C429.027 31.1542 429.328 31.1265 429.602 31.2095C429.904 31.3201 430.232 31.3755 430.534 31.4308C430.835 31.4861 431.137 31.4861 431.438 31.4861C431.493 31.5414 431.52 31.6244 431.575 31.6521C431.712 31.7627 431.904 31.7627 431.904 31.6521C431.904 31.5691 431.849 31.4308 431.794 31.4031C431.685 31.3478 431.575 31.3201 431.438 31.2925C431.328 31.2095 431.246 31.0988 431.137 31.0159C430.369 30.5179 429.575 30.0477 428.753 29.6604C428.507 29.5498 428.26 29.4115 428.013 29.3285C427.219 29.0519 426.424 28.7752 425.63 28.4986C425.356 28.4156 425.082 28.2773 424.808 28.1943C424.534 28.1113 424.233 28.0284 423.931 28.0284C423.466 28.0284 423.055 27.7517 422.589 27.7794C422.342 27.5581 422.014 27.7241 421.712 27.6134C421.438 27.5028 421.137 27.5028 420.836 27.4751C420.425 27.4475 420.014 27.4198 419.603 27.4198C418.151 27.3645 416.726 27.2262 415.274 27.3091C414.096 27.3645 412.918 27.4198 411.767 27.5028C410.535 27.5858 409.302 27.6411 408.096 27.7241C407.466 27.7794 406.836 27.8347 406.233 27.89C404.726 28.0284 403.247 28.1943 401.74 28.305C399.768 28.4156 397.823 28.4709 395.85 28.5539C394.946 28.5816 394.042 28.5539 393.138 28.5539C392.206 28.5539 391.302 28.5539 390.371 28.3326C390.371 28.3326 390.316 28.3326 390.289 28.3326C389.878 28.3603 389.494 28.2496 389.111 28.1943C388.754 28.1113 388.48 27.8624 388.124 27.8624C388.069 27.8071 388.015 27.7241 387.96 27.7241C387.631 27.6687 387.275 27.7241 386.946 27.5581C386.946 27.5581 386.864 27.6134 386.837 27.6411C386.837 27.6964 386.837 27.7517 386.837 27.7794C387.001 27.9177 387.138 28.056 387.302 28.1943C387.439 28.388 387.631 28.5539 387.85 28.6646C388.289 28.8859 388.727 29.1072 389.165 29.3285C389.604 29.5221 390.015 29.7987 390.48 29.937C390.645 29.9924 390.809 30.0477 390.919 30.1307C391.083 30.2966 391.302 30.3243 391.521 30.352C391.768 30.4073 391.932 30.5733 392.179 30.6562C392.48 30.7669 392.809 30.7946 393.11 30.8775C393.85 31.0988 394.59 31.2372 395.302 31.5138C395.85 31.7074 396.371 31.7627 396.946 31.7904C397.905 31.8457 398.836 31.984 399.795 32.067C400.014 32.067 400.233 32.067 400.453 32.067C400.562 32.233 400.672 32.233 400.781 32.067C401.192 32.067 401.603 32.067 402.014 32.067C403.302 31.9287 404.562 31.9287 405.85 31.9287C406.096 31.9287 406.343 31.8734 406.589 31.8457C407 31.7904 407.439 31.6521 407.85 31.6244C409.165 31.5691 410.452 31.3478 411.74 31.2095C412.397 31.1265 413.055 30.9605 413.74 30.9605C414.425 30.9605 415.11 30.9052 415.767 30.7669C416.178 30.6839 416.562 30.6562 416.973 30.6562C417.082 30.6562 417.192 30.6562 417.301 30.6562C418.343 30.5733 419.356 30.4626 420.397 30.3796C421.055 30.3243 421.712 30.3243 422.37 30.2966C423.027 30.2966 423.685 30.2966 424.342 30.2966C425 30.269 425.603 30.5733 426.26 30.5179L426.205 30.4626Z" fill="black"/>
<path d="M79.5864 53.0072C79.5864 53.0072 79.5864 52.7859 79.559 52.6752C79.2851 51.9837 79.4221 51.1538 78.9289 50.5176C78.9289 50.241 78.8193 50.0197 78.655 49.7707C78.4906 49.5218 78.4632 49.2175 78.3536 48.9409C77.8605 47.7514 77.1482 46.7556 76.2441 45.8427C75.6414 45.2341 75.0112 44.6809 74.2168 44.349C74.025 44.266 73.8058 44.266 73.5866 44.183C73.3675 44.1 73.1757 43.934 72.9291 43.8787C72.6552 43.7957 72.3538 43.7681 72.0524 43.7127C71.7511 43.6574 71.4223 43.5744 71.121 43.5468C70.3539 43.4914 69.6142 43.5468 68.8745 43.6851C68.2991 43.7957 67.7512 43.9894 67.2033 44.183C66.1896 44.5426 65.2855 45.1235 64.4636 45.7874C63.45 46.5896 62.5185 47.4748 61.8884 48.6089C61.5596 49.2175 61.2857 49.826 61.0665 50.4623C60.9021 50.9602 60.6829 51.4858 60.6008 52.0113C60.4638 52.8965 60.546 54.3073 60.7377 55.2478C60.7925 55.5521 60.9295 55.8564 61.0117 56.1883C61.1487 56.8799 61.4227 57.5161 61.724 58.1247C62.1624 59.0375 62.7103 59.8674 63.313 60.6972C63.8609 61.4164 64.5732 61.8037 65.4773 61.8037C66.1348 61.8037 66.7923 61.8037 67.4498 61.8037V61.859C68.3265 61.8037 69.2032 61.776 70.0525 61.6931C70.6004 61.6377 71.121 61.4718 71.6415 61.3611C72.162 61.2505 72.6278 60.9462 73.1483 60.8909C75.0934 60.1163 76.8194 59.0098 78.2166 57.4054C78.7098 56.8245 79.1481 56.216 79.5043 55.5244C79.8056 54.9159 79.833 54.3073 79.696 53.6987C79.6412 53.4498 79.5864 53.2285 79.5864 52.9795V53.0072ZM77.4495 54.6392C77.3673 55.0818 77.2577 55.5244 76.9564 55.9117C75.9153 57.1841 74.6825 58.2076 73.1757 58.8439C72.1894 59.2588 71.2031 59.5631 70.1347 59.729C69.3676 59.8674 68.6279 59.8674 67.8608 59.7014C67.3403 59.5907 66.7923 59.5354 66.2718 59.3418C65.8883 59.2035 65.5321 58.9822 65.2307 58.7332C64.6554 58.2906 64.1075 57.765 63.7239 57.1288C63.4774 56.7416 63.2308 56.3543 63.0116 55.9394C62.6281 55.1925 62.4911 54.3903 62.5733 53.5604C62.6281 53.0072 62.6281 52.4816 62.6281 51.9284C62.6281 51.6794 62.6829 51.4304 62.8473 51.2368C64.1349 49.6601 65.4773 48.1663 67.3677 47.2811C68.1074 46.9215 68.9292 46.7832 69.6963 46.5896C70.0525 46.4789 70.4087 46.3683 70.8196 46.4236C70.9292 46.4236 71.0662 46.4236 71.121 46.4789C71.3401 46.6449 71.5867 46.5896 71.8333 46.5896C72.7921 46.5896 73.6688 46.8662 74.4907 47.2811C75.066 47.5854 75.5044 48.028 75.8605 48.5536C76.1345 48.9409 76.3537 49.3281 76.5728 49.7431C76.7372 50.1027 76.9016 50.4899 76.9838 50.8772C77.203 51.9284 77.4769 52.9518 77.4769 54.1966C77.4769 54.2243 77.4769 54.4456 77.4495 54.6669V54.6392Z" fill="black"/>
<path d="M137.393 52.7859C137.393 52.7859 137.146 52.8965 137.009 52.9242C136.434 53.0625 135.886 53.3115 135.311 53.4221C134.708 53.5328 134.187 53.8647 133.585 53.9753C133.009 54.086 132.489 54.3903 131.941 54.5839C131.503 54.7499 131.037 54.9159 130.598 55.0818C130.133 55.2201 129.722 55.4691 129.283 55.6627C127.475 56.4649 126.078 57.7927 124.79 59.2588C124.653 59.3971 124.516 59.5354 124.434 59.7014C124.379 59.812 124.407 59.9503 124.379 60.1163C124.763 60.227 125.01 60.1163 125.256 60.0333C125.777 59.8397 126.325 59.6461 126.873 59.4801C127.393 59.3141 127.914 59.2035 128.434 59.0375C129.667 58.6779 130.9 58.2906 132.078 57.7374C132.872 57.5991 133.557 57.1841 134.242 56.8522C135.859 56.05 137.201 54.9159 138.297 53.4774C138.406 53.3391 138.489 53.2285 138.571 53.0625C138.626 52.9242 138.708 52.7582 138.571 52.6199C138.16 52.5646 137.776 52.5646 137.393 52.7859Z" fill="black"/>
<path d="M59.1488 62.7719C59.1488 62.7719 58.9844 62.7719 58.9022 62.7719C57.9707 61.859 57.0392 60.9185 56.1078 60.0057C55.8338 59.729 55.5598 59.5078 55.2311 59.2865C54.8201 59.0098 54.464 58.6502 54.1626 58.263C53.9982 58.0693 53.8339 57.9034 53.6695 57.7374C53.5051 57.5161 53.2037 57.5437 53.0394 57.2671C52.9024 57.0182 52.6284 56.8522 52.3819 56.6586C52.0805 56.4096 51.7517 56.216 51.5052 55.9394C51.0668 55.4691 50.6559 55.0265 50.108 54.7222C50.0258 54.6669 49.9162 54.5839 49.8614 54.5009C49.4778 53.92 48.9025 53.5328 48.4094 53.0902C48.1902 52.8965 47.9436 52.7029 47.7245 52.5093C47.5053 52.3156 47.2587 52.122 47.0396 51.9284C46.8478 51.7624 46.6286 51.5964 46.382 51.4581C46.1355 51.3198 45.9985 50.9602 45.7245 50.8772C45.4232 50.7666 45.3136 50.4623 45.0944 50.324C44.8204 50.158 44.6287 49.8537 44.2999 49.7707C44.1355 49.4388 43.8342 49.2451 43.5876 49.0238C43.3684 48.8302 43.1493 48.6366 42.9027 48.4429C42.6835 48.277 42.5466 48.028 42.2452 48.0003C42.1082 47.7237 41.8616 47.5578 41.6425 47.3641C41.3959 47.1428 41.1493 46.9492 40.8754 46.7279C40.6014 46.5066 40.3822 46.23 40.0261 46.147C39.9165 45.815 39.5877 45.6767 39.3686 45.4554C39.259 45.3448 39.0946 45.2895 38.9576 45.2065C38.8754 45.1512 38.7659 45.0958 38.7111 45.0128C38.4645 44.5703 38.0535 44.2936 37.67 43.9893C36.9851 43.4638 36.4098 42.7999 35.6153 42.4126C35.2043 41.804 34.5742 41.3615 34.1359 40.7806C34.1085 40.7529 34.1359 40.6699 34.1359 40.6146C34.4372 40.5316 34.7386 40.4763 35.0399 40.3656C36.4098 39.8954 37.8344 39.5634 39.2042 39.0655C39.7247 38.8719 40.2453 38.7612 40.7658 38.5676C41.3137 38.374 41.8342 38.208 42.3548 37.9867C42.8479 37.7654 43.341 37.5718 43.8342 37.3505C44.6561 36.9909 45.4506 36.5483 46.2177 36.078C47.3683 35.3588 48.4916 34.5843 49.5052 33.6714C50.5463 32.7309 51.3134 31.5968 52.1079 30.435C52.3271 30.1307 52.4366 29.7434 52.6832 29.4668C52.9846 29.1348 52.9298 28.7199 53.1763 28.388C53.4229 28.0837 53.3407 27.6687 53.3407 27.2815C53.3407 26.9495 53.0942 26.7559 52.875 26.5346C52.2175 25.8431 51.5052 25.2068 50.7381 24.6259C49.56 23.7407 48.245 23.0492 46.93 22.413C46.8478 22.3853 46.793 22.33 46.7108 22.3023C46.2725 22.3023 45.9711 21.8597 45.5054 21.915C44.9574 21.5554 44.3273 21.3895 43.6698 21.2788C43.4506 21.2512 43.1767 21.1682 43.0123 21.0575C42.7931 20.8916 42.5739 20.8362 42.3274 20.8086C41.4233 20.6149 40.5192 20.3936 39.6151 20.2277C39.0946 20.1447 38.5467 20.0617 38.0262 19.9787C37.7522 19.951 37.5056 19.9787 37.2591 19.8404C37.0947 19.7574 36.9029 19.7574 36.7111 19.7297C35.5057 19.5914 34.2729 19.4531 33.04 19.3148C32.7387 19.2872 32.4373 19.2318 32.1359 19.2318C31.1223 19.1765 30.136 18.9829 29.1223 18.9829C28.2457 18.9829 27.369 18.9829 26.4923 18.9552C25.8348 18.9552 25.1773 18.8999 24.5197 18.8999C23.4513 18.8999 22.3828 18.9552 21.3144 19.0105C21.0952 19.0105 20.876 19.0105 20.6569 19.0382C20.0541 19.0659 19.4514 19.1212 18.8761 19.1765C18.7665 19.1765 18.6569 19.1765 18.5473 19.2318C18.2734 19.3701 17.972 19.3148 17.6707 19.3701C17.3693 19.4255 17.0953 19.5084 16.794 19.5084C16.1091 19.5084 15.4515 19.7851 14.7666 19.7021C14.7666 19.7021 14.7118 19.7021 14.6845 19.7021C14.1913 19.9234 13.616 19.8127 13.0955 19.9787C12.6845 20.0894 12.2462 20.117 11.8078 20.1447C11.3695 20.1447 10.9585 20.2277 10.5476 20.3383C9.99967 20.4766 9.42435 20.5319 8.87642 20.6426C7.15045 20.9469 5.61625 21.4171 3.7807 21.9704C2.90401 22.247 2.02733 22.5236 1.15065 22.8279C0.794495 22.9385 0.438342 23.1322 0.109585 23.2705C0.0547927 23.2705 0.0273964 23.3811 0 23.4365C0.0547927 23.4918 0.0821891 23.5471 0.109585 23.5748C0.794495 23.879 1.34242 24.3493 1.86295 24.9025C2.21911 25.2898 2.52047 25.7047 2.84922 26.092C3.47934 26.8389 4.10945 27.6134 4.87655 28.222C5.12312 28.4156 5.36969 28.5539 5.69844 28.5539C5.86282 28.5539 6.0272 28.5539 6.19158 28.5539C6.62992 28.5539 6.96781 28.3234 7.20524 27.8624C7.20524 27.8624 7.09566 27.5581 7.01347 27.4475C6.90388 27.2538 6.73951 27.1155 6.60252 26.9219C6.0272 26.2303 5.47927 25.5111 4.87655 24.8196C4.65738 24.5706 4.68478 24.3216 4.82176 24.0727C4.90395 23.9067 5.04093 23.7684 5.12312 23.6301C6.13679 23.4918 7.12305 23.4088 8.05453 23.2152C8.54767 23.1045 9.0134 23.1045 9.50654 23.0769C9.94488 23.0492 10.438 23.1875 10.849 22.9109C10.9311 22.8556 11.0681 22.9109 11.1777 22.9109C11.2873 22.9109 11.4243 22.9662 11.5065 22.9109C11.7256 22.7449 11.9448 22.6896 12.1914 22.7726C12.4653 22.8556 12.6571 22.6343 12.8763 22.5789C14.0543 22.413 15.2598 22.247 16.4378 22.0257C16.9857 21.915 17.5611 21.9427 18.109 21.7767C18.5473 21.6384 19.0131 21.6384 19.4788 21.5831C19.9172 21.5554 20.3555 21.6384 20.739 21.4171C21.7253 21.3895 22.6568 21.0575 23.6431 21.0852C24.1088 21.0852 24.5745 21.0299 25.0403 21.0299C25.9992 21.0022 26.958 20.9469 27.9169 20.9469C28.0539 20.9469 28.1635 21.0022 28.3004 21.0022C28.4374 21.3341 28.41 21.6384 28.41 21.915C28.41 23.0215 28.3552 24.1003 28.2183 25.1792L28.0813 25.2345C28.0813 25.2345 28.1635 25.3175 28.2183 25.3451C28.2183 26.1197 28.2183 26.8665 28.2183 27.6411C27.9991 27.8347 27.9991 27.973 28.2183 28.139C28.273 29.6604 28.3552 31.2095 28.2183 32.7309C28.1087 32.7309 28.0265 32.7586 28.0265 32.8969C28.0265 33.0075 28.1087 33.0628 28.2183 33.0628C28.2457 33.7544 28.273 34.4183 28.3004 35.1098C28.3004 35.2205 28.2457 35.3035 28.2457 35.4141C28.2457 35.5801 28.1361 35.7737 28.2183 35.8844C28.41 36.2716 28.3552 36.6866 28.3552 37.0738C28.3552 41.887 28.3552 46.7002 28.3552 51.5134C28.3552 53.0348 28.2457 54.5839 28.1909 56.1053C28.1361 57.2948 28.0813 58.5119 28.0265 59.7014C28.0265 59.895 28.0265 60.0887 27.9717 60.2823C27.9169 60.4759 27.9169 60.6972 27.8073 60.8909C27.7251 61.0292 27.8895 61.2781 27.8621 61.4718C27.8621 61.7484 27.8621 62.0527 27.7525 62.274C27.5607 62.6059 27.5881 62.9378 27.5881 63.2974C27.5881 63.4081 27.6429 63.5464 27.5881 63.6294C27.3142 64.0167 27.4512 64.4869 27.3964 64.9019C27.3964 65.2061 27.4512 65.5381 27.2594 65.8424C27.1772 65.9807 27.2046 66.2296 27.2594 66.3956C27.2868 66.5062 27.4238 66.6446 27.5333 66.6722C27.6977 66.6999 27.8895 66.7275 28.0813 66.6169C28.5744 66.285 28.9032 65.8147 29.4237 65.5104C29.4785 65.4827 29.5333 65.3721 29.5607 65.3168C30.1086 64.5976 30.3826 64.0997 30.6839 63.0762C30.7935 62.7442 30.9305 62.4123 30.9579 62.0803C30.9853 61.3611 31.1771 60.6419 31.1497 59.895C31.1497 57.2948 31.1497 54.6946 31.1497 52.0943C31.1497 51.2091 31.1223 50.2963 31.314 49.4111C31.4236 48.9409 31.451 48.4429 31.6154 48.0003C31.6976 47.7514 31.8072 47.4748 31.8072 47.2258C31.8072 46.8385 32.0264 46.5619 32.2181 46.2853C32.4921 45.8427 32.7113 45.7597 33.2592 45.9534C33.4236 46.0087 33.5605 46.0363 33.7249 46.0363C33.9441 46.0363 34.1633 46.0917 34.355 46.1193C34.766 46.23 35.2043 46.2853 35.6153 46.4513C36.0262 46.6172 36.4646 46.7832 36.8755 46.9769C38.0262 47.4748 39.122 48.0833 40.0809 48.8855C41.8069 50.324 43.4506 51.8454 44.93 53.5328C45.9163 54.6669 46.9848 55.7457 47.9984 56.8245C48.0806 56.9352 48.1902 57.0182 48.2724 57.1288C49.1491 58.1523 50.1079 59.0652 51.0942 59.978C52.0257 60.8355 53.1216 61.4441 54.19 62.0803C54.6284 62.0803 54.9571 62.4676 55.3954 62.4953C55.6694 62.4953 55.916 62.6336 56.1899 62.7165C56.4091 62.7995 56.6283 62.9102 56.8749 62.9378C57.1214 62.9932 57.368 62.9378 57.6146 62.9378C58.0529 62.9378 58.4912 63.0485 58.9296 62.9378C58.9844 62.9932 59.0392 63.0762 59.094 63.0762C59.1761 63.0762 59.3405 63.0208 59.3679 62.9655C59.4227 62.8272 59.2857 62.7995 59.1761 62.7719H59.1488ZM33.6427 38.8995C33.6427 38.8995 33.451 38.9549 33.3414 38.9825C33.177 39.0102 33.0126 39.0378 32.8756 39.0932C32.3003 39.3421 31.725 39.3698 31.0949 39.2868C31.0675 39.2038 31.0401 39.1762 31.0401 39.1485C31.0675 37.6547 30.8483 36.161 30.7661 34.6672C30.7113 33.4501 30.7113 32.2053 30.7387 30.9882C30.7387 30.02 30.8209 29.0795 30.8483 28.1113C30.8483 27.4475 30.7935 26.8112 30.7661 26.1473C30.7661 25.0962 30.7661 24.0727 30.7387 23.0215C30.7387 22.7172 30.8209 22.4406 30.9853 22.1363C31.1771 22.1363 31.3688 22.1087 31.5606 22.1087C33.8893 22.1087 36.218 22.1087 38.5193 22.1087C39.2316 22.1087 39.9165 22.1917 40.6288 22.3853C40.711 22.3853 40.7932 22.413 40.8754 22.413C41.5877 22.3576 42.2726 22.6343 42.9575 22.7726C43.5054 22.9109 44.0534 23.0769 44.6013 23.2152C46.793 23.7407 48.7107 24.7642 50.4367 26.175C51.2312 26.8112 51.286 27.6964 50.9024 28.4433C50.4367 29.3285 49.8614 30.103 49.2039 30.8499C47.4505 32.8415 45.2862 34.3076 42.8753 35.4141C41.9438 35.829 40.985 36.244 40.0535 36.6589C39.7795 36.7696 39.4782 36.7972 39.2042 36.9079C38.9576 37.0185 38.7659 37.2121 38.4645 37.2121C37.8892 37.5441 37.2043 37.6271 36.6015 37.9037C36.1358 38.0973 35.6153 38.125 35.1769 38.3463C34.7112 38.5676 34.1907 38.6782 33.7249 38.9272L33.6427 38.8995Z" fill="black"/>
<path d="M512.75 39.1208C512.805 38.7889 512.696 38.4846 512.559 38.1803C512.449 37.9314 512.285 37.7377 512.285 37.4334C511.846 36.5759 511.518 35.6907 510.97 34.8609C510.12 33.5884 509.024 32.6203 507.545 32.1777C507.381 32.1223 507.162 32.0947 507.025 31.984C506.668 31.6797 506.203 31.7351 505.819 31.5138C505.573 31.3755 505.244 31.4031 505.079 31.4584C504.723 31.9564 505.134 32.3713 504.942 32.7862C505.025 32.9522 505.134 33.0905 505.189 33.2841C505.572 34.5013 506.367 35.4418 507.435 36.1057C508.312 36.6589 509.216 37.1568 510.093 37.6824C510.723 38.0143 511.298 38.4016 511.874 38.8165C512.093 38.9825 512.339 39.0932 512.559 39.2038C512.559 39.2038 512.668 39.2038 512.723 39.2315C512.723 39.1762 512.723 39.1485 512.723 39.0932L512.75 39.1208Z" fill="black"/>
</svg>
